<svg id="Layer_1" data-name="Layer 1" xmlns="http://www.w3.org/2000/svg" xmlns:xlink="http://www.w3.org/1999/xlink" viewBox="0 0 119.09 142.16"><defs><style>.cls-1{fill:none;}.cls-2{clip-path:url(#clip-path);}.cls-3{fill:url(#linear-gradient);}.cls-4{fill:url(#linear-gradient-2);}</style><clipPath id="clip-path" transform="translate(-65.45 -3.98)"><rect class="cls-1" width="250" height="150"/></clipPath><linearGradient id="linear-gradient" x1="181.6" y1="144.76" x2="96.2" y2="53.14" gradientUnits="userSpaceOnUse"><stop offset="0.27" stop-color="#0fe"/><stop offset="1" stop-color="#f662f6"/></linearGradient><linearGradient id="linear-gradient-2" x1="192.26" y1="152.84" x2="166.59" y2="121.23" gradientUnits="userSpaceOnUse"><stop offset="0.2" stop-color="#0fe"/><stop offset="0.93" stop-color="#f662f6"/></linearGradient></defs><g class="cls-2"><path class="cls-3" d="M125.13,4,175.42,110.1H160.56L117.7,19.66ZM109,38.1l7.14,15.06v0l19.78,41.57h14.78L123.48,37.5h0l-7.1-14.95h0Zm49,71.89-6.37-13.4H136.79l-37,.06L93.38,110.1l49.8-.08v0l14.75,0ZM95.58,96.67h0l19.49-41.31-7.14-15.08L81,96.69l-6.41,13.44v0l14.63,0Z" transform="translate(-65.45 -3.98)"/><path d="M81.68,139.41a1.19,1.19,0,0,1-.36.87,1.21,1.21,0,0,1-.89.36,1.29,1.29,0,0,1-.69-.2,1.21,1.21,0,0,1-.48-.57l-1.35-3.39H69.23l-1.38,3.39a1.36,1.36,0,0,1-.49.57,1.22,1.22,0,0,1-.67.2,1.17,1.17,0,0,1-.89-.37,1.28,1.28,0,0,1-.35-.89,1.4,1.4,0,0,1,.13-.55l6.79-16.23a1.23,1.23,0,0,1,1.19-.85,1.17,1.17,0,0,1,1.18.85l6.82,16.28A1.52,1.52,0,0,1,81.68,139.41Zm-11.61-5h7l-3.46-8.61Z" transform="translate(-65.45 -3.98)"/><path d="M98.05,127.68a1,1,0,0,1,.25.72,2,2,0,0,1-.12.71L94.6,139.84a1.17,1.17,0,0,1-.44.57,1.11,1.11,0,0,1-.7.23,1.23,1.23,0,0,1-.74-.23,1.07,1.07,0,0,1-.42-.57l-2.37-8.78-2.49,8.78a1.13,1.13,0,0,1-.45.57,1.16,1.16,0,0,1-.71.23,1.19,1.19,0,0,1-.72-.23,1.17,1.17,0,0,1-.44-.57l-3.58-10.73a2.15,2.15,0,0,1-.1-.68.9.9,0,0,1,1-1,1.1,1.1,0,0,1,.76.27,1.87,1.87,0,0,1,.49.84l2.62,8.16,2.46-8.35a1.36,1.36,0,0,1,.43-.66,1.17,1.17,0,0,1,.78-.26,1.13,1.13,0,0,1,.76.26,1.3,1.3,0,0,1,.43.66l2.18,8.51L96,128.52c.22-.74.64-1.11,1.25-1.11A1,1,0,0,1,98.05,127.68Z" transform="translate(-65.45 -3.98)"/><path d="M110.42,128a5.16,5.16,0,0,1,2.08,2.11,7,7,0,0,1,.75,3.35v6a1.2,1.2,0,0,1-1.24,1.24,1.21,1.21,0,0,1-.88-.35,1.23,1.23,0,0,1-.35-.89v-6a3.56,3.56,0,0,0-3.85-4,4.08,4.08,0,0,0-1.85.41,3.22,3.22,0,0,0-1.3,1.11,2.71,2.71,0,0,0-.47,1.57v6.82a1.26,1.26,0,0,1-.34.89,1.22,1.22,0,0,1-.9.35,1.21,1.21,0,0,1-.88-.35,1.23,1.23,0,0,1-.35-.89V128.65a1.21,1.21,0,0,1,.35-.9,1.24,1.24,0,0,1,.88-.34,1.25,1.25,0,0,1,.9.34,1.24,1.24,0,0,1,.34.9v.26a5.49,5.49,0,0,1,1.83-1.2,6.47,6.47,0,0,1,5.28.31Z" transform="translate(-65.45 -3.98)"/><path d="M117.68,124.79a1.56,1.56,0,0,1-.47-1.13,1.54,1.54,0,0,1,.47-1.12,1.53,1.53,0,0,1,1.13-.47,1.6,1.6,0,0,1,1.59,1.59,1.53,1.53,0,0,1-.47,1.13,1.54,1.54,0,0,1-1.12.47A1.56,1.56,0,0,1,117.68,124.79Zm.25,15.5a1.17,1.17,0,0,1-.35-.88V128.65a1.17,1.17,0,0,1,.35-.9,1.32,1.32,0,0,1,1.77,0,1.2,1.2,0,0,1,.34.9v10.76a1.2,1.2,0,0,1-.34.88,1.29,1.29,0,0,1-1.77,0Z" transform="translate(-65.45 -3.98)"/><path d="M134.21,128a5,5,0,0,1,2.08,2.11,7,7,0,0,1,.75,3.35v6a1.2,1.2,0,0,1-1.23,1.24,1.21,1.21,0,0,1-.88-.35,1.19,1.19,0,0,1-.35-.89v-6a3.56,3.56,0,0,0-3.85-4,4.05,4.05,0,0,0-1.85.41,3.22,3.22,0,0,0-1.3,1.11,2.72,2.72,0,0,0-.48,1.57v6.82a1.26,1.26,0,0,1-.33.89,1.22,1.22,0,0,1-.9.35,1.21,1.21,0,0,1-.88-.35,1.19,1.19,0,0,1-.35-.89V128.65a1.17,1.17,0,0,1,.35-.9,1.24,1.24,0,0,1,.88-.34,1.25,1.25,0,0,1,.9.34,1.23,1.23,0,0,1,.33.9v.26a5.64,5.64,0,0,1,1.84-1.2,6.16,6.16,0,0,1,2.28-.42A6,6,0,0,1,134.21,128Z" transform="translate(-65.45 -3.98)"/><path d="M150.55,128.17a6.19,6.19,0,0,1,2.37,2.39,6.86,6.86,0,0,1,.86,3.48v5.22a7.29,7.29,0,0,1-.84,3.49,6.4,6.4,0,0,1-2.39,2.48,6.72,6.72,0,0,1-3.47.9,7.66,7.66,0,0,1-3.24-.69,6.64,6.64,0,0,1-2.51-2,1,1,0,0,1,.24-1.55,1.25,1.25,0,0,1,.67-.21,1.22,1.22,0,0,1,1,.5,4.18,4.18,0,0,0,1.64,1.3,5.38,5.38,0,0,0,2.25.45,4,4,0,0,0,3.7-2.24,5.55,5.55,0,0,0,.58-2.63v-1.18a5.58,5.58,0,0,1-2,2.08,5.24,5.24,0,0,1-2.78.75,6.1,6.1,0,0,1-3.21-.86,5.88,5.88,0,0,1-2.2-2.38,7.5,7.5,0,0,1-.79-3.46,7.06,7.06,0,0,1,.85-3.48,6.19,6.19,0,0,1,2.37-2.39,7,7,0,0,1,3.46-.85A6.83,6.83,0,0,1,150.55,128.17ZM149.34,138a4,4,0,0,0,1.53-1.61,4.91,4.91,0,0,0,.54-2.33,5.05,5.05,0,0,0-.54-2.35,4,4,0,0,0-1.53-1.62,4.5,4.5,0,0,0-4.42,0,4.07,4.07,0,0,0-1.54,1.62,4.94,4.94,0,0,0-.55,2.35,4.8,4.8,0,0,0,.55,2.33,4,4,0,0,0,1.54,1.61,4.5,4.5,0,0,0,4.42,0Z" transform="translate(-65.45 -3.98)"/><path class="cls-4" d="M165.15,140.28a1.22,1.22,0,0,1-.36-.9V123a1.23,1.23,0,0,1,.36-.91,1.33,1.33,0,0,1,1.8,0,1.26,1.26,0,0,1,.35.91v16.37a1.25,1.25,0,0,1-.35.9,1.3,1.3,0,0,1-1.8,0Zm19.06-18.19a1.25,1.25,0,0,1,.34.9v11a6.76,6.76,0,0,1-.89,3.42,6.53,6.53,0,0,1-2.39,2.42,6.65,6.65,0,0,1-3.38.88,6.74,6.74,0,0,1-3.39-.88,6.36,6.36,0,0,1-2.41-2.42,6.85,6.85,0,0,1-.87-3.42,7.26,7.26,0,0,1,.81-3.43,6.12,6.12,0,0,1,2.22-2.4,5.94,5.94,0,0,1,3.16-.87,5.87,5.87,0,0,1,2.61.58,5.8,5.8,0,0,1,2.06,1.62V123a1.22,1.22,0,0,1,.35-.9,1.24,1.24,0,0,1,.88-.34A1.25,1.25,0,0,1,184.21,122.09ZM180.08,138a4.17,4.17,0,0,0,1.54-1.63,4.88,4.88,0,0,0,.56-2.32,4.76,4.76,0,0,0-.56-2.31,4.27,4.27,0,0,0-5.91-1.63,4.26,4.26,0,0,0-1.55,1.63,4.65,4.65,0,0,0-.57,2.31,4.77,4.77,0,0,0,.57,2.32,4.26,4.26,0,0,0,1.55,1.63,4.34,4.34,0,0,0,4.37,0Z" transform="translate(-65.45 -3.98)"/></g></svg>