<svg id="Layer_1" data-name="Layer 1" xmlns="http://www.w3.org/2000/svg" xmlns:xlink="http://www.w3.org/1999/xlink" viewBox="0 0 172.53 142.2"><defs><style>.cls-1{fill:none;}.cls-2{clip-path:url(#clip-path);}.cls-3{fill:#0004ea;}.cls-4{fill:#ff5e04;}.cls-5{fill:#9605f5;}.cls-6{fill:#999;}.cls-7{fill:#ff01ff;}.cls-8{fill:#98f511;}.cls-9{fill:#f10603;}.cls-10{fill:#05f9f8;}.cls-11{fill:#fff;}</style><clipPath id="clip-path" transform="translate(-38.62 -0.88)"><rect class="cls-1" width="250" height="150"/></clipPath></defs><g class="cls-2"><path d="M153.37,33.89a39.49,39.49,0,0,0-68,27.33c0,.39,0,.78,0,1.17a39.48,39.48,0,0,0,78.93,0c0-.39,0-.78,0-1.17A39.32,39.32,0,0,0,153.37,33.89Z" transform="translate(-38.62 -0.88)"/><path class="cls-1" d="M156.54,30.72a44,44,0,0,0-75.63,30.5c0,.39,0,.78,0,1.17a44,44,0,0,0,87.89,0c0-.39,0-.78,0-1.17A43.84,43.84,0,0,0,156.54,30.72Z" transform="translate(-38.62 -0.88)"/><path class="cls-3" d="M156.54,30.72l6.55-6.55c-.88-.9-1.78-1.76-2.72-2.6l2.48-7.37-3.71-2.77-6.35,4.47c-.88-.55-1.78-1.06-2.7-1.56l.79-7.73-4.23-1.88-5.31,5.87c-.93-.31-1.87-.59-2.83-.84l-1.11-7.5-4.56-.79-3.55,6.71c-1.46-.12-2.93-.19-4.42-.19v9.26A43.86,43.86,0,0,1,156.54,30.72Z" transform="translate(-38.62 -0.88)"/><path class="cls-4" d="M94.38,92.88l-6.55,6.55c.76.74,1.55,1.45,2.36,2.15l-2.36,7,3.71,2.77L97.73,107q1.15.69,2.34,1.32l-.76,7.37,4.22,1.88,5.13-5.65c1.08.35,2.17.66,3.27.94l1.1,7.43,4.57.78,3.58-6.76c1.22.09,2.45.13,3.69.13v-9.26A43.78,43.78,0,0,1,94.38,92.88Z" transform="translate(-38.62 -0.88)"/><path class="cls-5" d="M168.84,61.22c0,.39,0,.78,0,1.17h9.26c0-.39,0-.78,0-1.17,0-.93,0-1.86-.07-2.78l7-3.58-.72-4.58-7.6-1.23q-.3-1.27-.66-2.52l6.4-5.33-1.71-4.3-8.25.5c-.43-.86-.88-1.69-1.35-2.52l4.77-6.59-2.72-3.75L165.61,27c-.81-1-1.65-1.89-2.52-2.8l-6.55,6.55A43.84,43.84,0,0,1,168.84,61.22Z" transform="translate(-38.62 -0.88)"/><path class="cls-6" d="M80.93,62.39H71.67q0,1.68.18,3.33l-6.68,3.42.72,4.58,7.55,1.22c.24.88.49,1.75.77,2.61l-5.73,4.76,1.71,4.31,7.66-.46c.41.78.85,1.55,1.3,2.3l-4.37,6,2.72,3.75L84.57,96c1,1.19,2.12,2.35,3.26,3.45l6.55-6.55A43.8,43.8,0,0,1,80.93,62.39Z" transform="translate(-38.62 -0.88)"/><path class="cls-7" d="M178.08,62.39h-9.26a43.8,43.8,0,0,1-13.45,30.49l6.55,6.55c.85-.83,1.68-1.69,2.48-2.58l7.44,2.55,2.79-3.7-4.5-6.47c.49-.79,1-1.59,1.4-2.4l8.2.89,1.91-4.22-6.19-5.68c.27-.81.52-1.63.74-2.46l7.73-1.1.81-4.56L177.88,66C178,64.82,178.06,63.61,178.08,62.39Z" transform="translate(-38.62 -0.88)"/><path class="cls-8" d="M80.91,61.22a43.84,43.84,0,0,1,12.3-30.5l-6.55-6.55c-.82.85-1.61,1.73-2.38,2.63l-7.14-2.44-2.79,3.7,4.49,6.45c-.58,1-1.13,2-1.65,3L70,36.77,68.07,41l5.72,5.26c-.28,1-.54,2-.77,2.95l-7.24,1L65,54.78l6.75,3.63c0,.93-.08,1.86-.08,2.81,0,.39,0,.78,0,1.17h9.26C80.92,62,80.91,61.61,80.91,61.22Z" transform="translate(-38.62 -0.88)"/><path class="cls-9" d="M124.87,105.18v9.26c1.3,0,2.59,0,3.87-.14l3.52,7.12,4.58-.66,1.42-8c.68-.18,1.36-.36,2-.57l4.94,6.11,4.33-1.64-.38-8.07q1.09-.55,2.16-1.17l6.41,4.77,3.78-2.66-2.32-7.63c.93-.78,1.83-1.6,2.71-2.45l-6.55-6.55A43.78,43.78,0,0,1,124.87,105.18Z" transform="translate(-38.62 -0.88)"/><path class="cls-10" d="M124.87,17.25V8c-1.53,0-3,.07-4.54.2L116.72.88l-4.34.62-1.47,8.35c-.87.24-1.74.5-2.59.78L103.76,5,99.67,6.55l.35,7.6c-1.24.66-2.46,1.36-3.64,2.12l-5.63-4.2L87,14.74l2.16,7.06Q87.86,23,86.66,24.17l6.55,6.55A43.85,43.85,0,0,1,124.87,17.25Z" transform="translate(-38.62 -0.88)"/><path class="cls-11" d="M111.81,67l-1.74-.21-.13-.15a.53.53,0,1,1,.78-.71ZM110,66.63a.51.51,0,0,0,.73-.7l-.37.31v0Z" transform="translate(-38.62 -0.88)"/><path class="cls-11" d="M133.45,71.82c-1.81,0-3.52,0-4.75-.17H110.57a31.75,31.75,0,0,1-3.38,0h-.69v0C98.28,71,93.18,67,91.35,59.71a24.53,24.53,0,0,1-.64-7.27,18.78,18.78,0,0,1,1.75-7.34A16,16,0,0,1,99.07,38a17.85,17.85,0,0,1,7.09-2.2,25.21,25.21,0,0,1,4.11-.09,18.61,18.61,0,0,1,7.7,2,2.75,2.75,0,0,1,.14-.3c.11-.25.22-.48.32-.72a1,1,0,0,1,.94-.61h0c1.51,0,3.12,0,4.72,0a1,1,0,0,1,.69.24.89.89,0,0,1,.24.71V50c0,.71-.24.95-.94.95h-5.2a.88.88,0,0,1-1-.78,18.78,18.78,0,0,0-1.57-5,5.57,5.57,0,0,0-2.44-2.66,5.69,5.69,0,0,0-6,.27,5.27,5.27,0,0,0-1.92,2.8,17,17,0,0,0-.86,4.15,39.38,39.38,0,0,0-.17,5.44,23.49,23.49,0,0,0,.92,6.49,6.1,6.1,0,0,0,1.94,3.08,5,5,0,0,0,2.56,1l.2,0,.07.09h17.42a14.18,14.18,0,0,0,1.61-.06c.82-.08,1-.28,1.1-1.07a13.31,13.31,0,0,0,.07-1.41V45.45a9.71,9.71,0,0,0-.12-1.43.68.68,0,0,0-.62-.66,8.53,8.53,0,0,0-1.69-.11h-.54c-1.19,0-1.41-.24-1.41-1.44v-1c0-.84,0-1.69,0-2.54a1,1,0,0,1,.23-.67.93.93,0,0,1,.68-.24h19.26a.91.91,0,0,1,.67.24.92.92,0,0,1,.24.67c0,1.33,0,2.69,0,4a.83.83,0,0,1-.9.91h-.85a11.73,11.73,0,0,0-1.79.06c-.79.1-.9.22-1,1,0,.5-.06,1-.06,1.45v20h.88l2.5,0a15.2,15.2,0,0,0,2.14-.2,3.82,3.82,0,0,0,3-2.5,12.27,12.27,0,0,0,.8-3.3c.08-.69.16-1.43.19-2.19a.78.78,0,0,1,.83-.81h0c1.54,0,3.09,0,4.63,0h0a.82.82,0,0,1,.58.22.9.9,0,0,1,.23.68c0,1.26,0,2.53,0,3.79v9.22c0,.81-.24,1-1.06,1H142.6c-.5,0-1.76,0-3.35,0S135.45,71.82,133.45,71.82Zm-5.79-1.36.6.09a89.49,89.49,0,0,0,11,.14c1.61,0,2.88-.07,3.42,0h15.11V61.42c0-1.21,0-2.43,0-3.65h-4.21c0,.74-.11,1.44-.19,2.09a13.24,13.24,0,0,1-.88,3.58,4.86,4.86,0,0,1-3.8,3.12,17.41,17.41,0,0,1-2.28.21H143a.83.83,0,0,1-1-1v-20c0-.5,0-1,.07-1.53a1.8,1.8,0,0,1,1.87-1.95,12.64,12.64,0,0,1,1.93-.07h.7c0-1.25,0-2.51,0-3.76h-19c0,.81,0,1.62,0,2.41v1.34h.9a9.59,9.59,0,0,1,1.91.13,1.71,1.71,0,0,1,1.43,1.52,10.6,10.6,0,0,1,.14,1.59V63.32a14.92,14.92,0,0,1-.07,1.5,2,2,0,0,1-2,2,16.48,16.48,0,0,1-1.71.06H110.2l-.12-.15a5.88,5.88,0,0,1-2.89-1.22A7.11,7.11,0,0,1,104.91,62a24.29,24.29,0,0,1-1-6.77,41.48,41.48,0,0,1,.17-5.58,18.1,18.1,0,0,1,.92-4.39,6.43,6.43,0,0,1,2.32-3.31,6.65,6.65,0,0,1,7-.35,6.46,6.46,0,0,1,2.91,3.12,19.16,19.16,0,0,1,1.66,5.2H124V37.16c-1.57,0-3.14,0-4.6,0l-.33.73c-.07.14-.13.27-.19.41s-.22.49-.5.59a.94.94,0,0,1-.75-.15,17.29,17.29,0,0,0-7.4-2,23.18,23.18,0,0,0-3.94.09,16.86,16.86,0,0,0-6.68,2.06,15,15,0,0,0-6.19,6.66,17.93,17.93,0,0,0-1.65,6.94,23.42,23.42,0,0,0,.6,7c1.76,7,6.76,10.73,14.86,11.16h0c1.06,0,2.17,0,3.29,0h17.13Zm18.86-28Zm-19-4.14Z" transform="translate(-38.62 -0.88)"/><path class="cls-11" d="M123.93,87.12V82.31a4.86,4.86,0,0,0,0-.66.65.65,0,0,0-.63-.65l-.16,0c-.11,0-.25,0-.31-.07a.78.78,0,0,1,0-.43c0-.12.12-.11.21-.11h1.39c.42,0,.83,0,1.25,0,.18,0,.26,0,.24.24a.33.33,0,0,0,0,.14c0,.17,0,.24-.23.23a2.46,2.46,0,0,0-.37,0,.64.64,0,0,0-.48.65,3.46,3.46,0,0,0,0,.46V89.2c0,.33,0,.3-.32.34a.77.77,0,0,1-.82-.48c-1.49-2.49-3-5-4.51-7.43l-.08-.12c-.07,0,0,.09,0,.13q0,3.28,0,6.57a.61.61,0,0,0,.64.68,1.13,1.13,0,0,0,.25,0c.21,0,.24.09.24.26,0,.35,0,.35-.34.35h-2.52c-.09,0-.23,0-.27-.09a.76.76,0,0,1,0-.47c0-.06.09,0,.15,0l.35,0a.58.58,0,0,0,.58-.56c0-.21,0-.42,0-.63V82a3,3,0,0,0,0-.52.47.47,0,0,0-.48-.49l-.46,0c-.13,0-.19,0-.19-.18a.6.6,0,0,0,0-.19c0-.18.07-.24.24-.24q1.18,0,2.37,0a.38.38,0,0,1,.37.21q1.89,3.15,3.81,6.3Z" transform="translate(-38.62 -0.88)"/><path class="cls-11" d="M136.32,84.84a4.67,4.67,0,0,1-1.39,3.59,4.36,4.36,0,0,1-2.81,1.23,4.92,4.92,0,0,1-2.25-.29,4.38,4.38,0,0,1-2.81-3.51,4.78,4.78,0,0,1,.62-3.46,4.8,4.8,0,0,1,7.38-.8A4.38,4.38,0,0,1,136.32,84.84Zm-7.87-.21a4.75,4.75,0,0,0,.81,3.15,3,3,0,0,0,4.88-.19,5.35,5.35,0,0,0,.47-4.4,3.34,3.34,0,0,0-.88-1.52,2.79,2.79,0,0,0-2.25-.68A3,3,0,0,0,129,82.56,4.44,4.44,0,0,0,128.45,84.63Z" transform="translate(-38.62 -0.88)"/><path class="cls-11" d="M138.71,84.94c0-1.12,0-2.24,0-3.35,0-.42-.13-.56-.55-.59l-.26,0c-.1,0-.24,0-.29-.07a.76.76,0,0,1,0-.47c0-.1.16-.07.24-.07h3.62a12.61,12.61,0,0,1,1.62.12,2.55,2.55,0,0,1,2.16,2,2.61,2.61,0,0,1-2.31,3.06,23.46,23.46,0,0,1-2.65.08c-.22,0-.27.06-.27.27,0,.74,0,1.48,0,2.22a.75.75,0,0,0,0,.15c0,.4.14.58.56.61h.22c.36,0,.45.12.37.49,0,.12-.12.12-.21.12h-1c-.72,0-1.45,0-2.18,0-.17,0-.26,0-.24-.24a1.08,1.08,0,0,0,0-.18c0-.13,0-.19.18-.19a3,3,0,0,0,.42,0,.51.51,0,0,0,.52-.59c0-.4,0-.8,0-1.2V84.94ZM140,83v1.68c0,.13,0,.22.17.21.7,0,1.4,0,2.1,0a1.61,1.61,0,0,0,1.22-.69,2.18,2.18,0,0,0,.3-1.57,1.59,1.59,0,0,0-1.34-1.38,16,16,0,0,0-2.3-.08c-.15,0-.15.09-.15.21Z" transform="translate(-38.62 -0.88)"/><path class="cls-11" d="M114.77,89.53c-.46,0-.93,0-1.39,0-.18,0-.26,0-.26-.24,0-.38,0-.39.38-.4h.14c.31,0,.45-.2.37-.49-.14-.46-.3-.92-.45-1.38-.08-.23-.17-.46-.24-.69a.23.23,0,0,0-.24-.18h-2.89a.23.23,0,0,0-.24.18c-.23.64-.47,1.29-.69,1.94-.14.4,0,.57.41.63h.08c.38,0,.38,0,.36.43,0,.13,0,.19-.18.19h-2.41c-.12,0-.19,0-.18-.17a.75.75,0,0,0,0-.15c0-.2,0-.31.26-.31a.76.76,0,0,0,.72-.54c.34-.8.63-1.62.94-2.44l2-5.31c.07-.18.16-.27.36-.25a5.61,5.61,0,0,0,.58,0,.29.29,0,0,1,.35.23c.55,1.48,1.1,3,1.64,4.43.38,1,.75,2,1.13,3,0,.14.11.27.17.4a.79.79,0,0,0,.74.49c.17,0,.22.07.21.23a.43.43,0,0,0,0,.16c0,.17-.06.22-.22.22C115.73,89.52,115.25,89.53,114.77,89.53Zm-3.13-7.84a.75.75,0,0,0-.07.15c-.42,1.14-.82,2.28-1.24,3.42-.06.16,0,.18.15.18h2.24c.25,0,.26,0,.17-.24L112.11,83Z" transform="translate(-38.62 -0.88)"/><path class="cls-11" d="M98.19,85a4.64,4.64,0,0,1,3.24-4.56,4.08,4.08,0,0,1,3.5.4c.2.12.2.12.29-.11s0-.35.29-.35.33,0,.42.31c.23.85.46,1.71.7,2.57.05.16,0,.23-.15.27-.44.12-.44.12-.64-.28a5.15,5.15,0,0,0-.84-1.36,3,3,0,0,0-4.55.35,4.71,4.71,0,0,0,0,5.29,3.13,3.13,0,0,0,2.69,1.32,3.94,3.94,0,0,0,2.44-1,4.33,4.33,0,0,0,.69-.73c.08-.11.16-.12.27,0,.47.34.5.21.12.68a4.91,4.91,0,0,1-3.25,1.92,4.51,4.51,0,0,1-5.2-4C98.2,85.45,98.19,85.22,98.19,85Z" transform="translate(-38.62 -0.88)"/><path class="cls-11" d="M149.55,89.53c-.52,0-1,0-1.56,0-.19,0-.27-.06-.25-.25V89.1c0-.12,0-.18.18-.18a2.3,2.3,0,0,0,.52,0,.47.47,0,0,0,.42-.41,1.13,1.13,0,0,0,0-.25V86.11a.54.54,0,0,0-.08-.3c-.79-1.4-1.59-2.81-2.37-4.22a1,1,0,0,0-.91-.6c-.24,0-.25,0-.25-.41,0-.21.11-.22.27-.22h2.95c.09,0,.21,0,.23.08a.75.75,0,0,1,0,.49s-.1,0-.15,0a3,3,0,0,0-.52,0c-.17,0-.22.12-.21.28a.75.75,0,0,0,.09.25l1.75,3.24s0,.13.12.13.07-.08.09-.13c.62-1.08,1.24-2.15,1.85-3.23a.56.56,0,0,0,.09-.17c.09-.22,0-.33-.21-.38a1.78,1.78,0,0,0-.46,0c-.13,0-.18-.06-.18-.19,0-.42,0-.42.41-.42.73,0,1.47,0,2.2,0,.19,0,.25.06.25.25s0,.35-.33.37a.94.94,0,0,0-.77.51q-1.22,2.06-2.45,4.11a.5.5,0,0,0-.08.27c0,.79,0,1.57,0,2.35,0,.45.17.68.64.68a.55.55,0,0,1,.18,0c.11,0,.25,0,.31.06a.78.78,0,0,1,0,.43c0,.13-.12.12-.21.12Z" transform="translate(-38.62 -0.88)"/><path class="cls-11" d="M168.84,62.67l9.26-.16,0-1.52-9.21.16a43.72,43.72,0,0,0-12.35-30.49l6.54-6.53L162,23.05l-6.53,6.54a43.72,43.72,0,0,0-29.82-12.36V8h-1.52v9.24A43.65,43.65,0,0,0,94.05,29.84l-6.59-6.48-1.07,1.08L93,30.92a43.68,43.68,0,0,0-12.1,30.3h0l-9.23.16,0,1.52,9.24-.16a43.6,43.6,0,0,0,12.32,29l-6.54,6.54,1.08,1.07,6.53-6.53a43.7,43.7,0,0,0,29.81,12.35v9.24h1.52V105.2a43.64,43.64,0,0,0,29.45-12l6.73,6.61,1.06-1.09-6.7-6.59A43.65,43.65,0,0,0,168.84,62.67Zm-44,38.21a39.66,39.66,0,1,1,39.66-39.66A39.71,39.71,0,0,1,124.87,100.88Z" transform="translate(-38.62 -0.88)"/><path d="M48.63,138.26l0,.06a4.59,4.59,0,0,1-1.22,3.57,5.06,5.06,0,0,1-3.6,1.19,5.14,5.14,0,0,1-3.8-1.41,5.44,5.44,0,0,1-1.41-4v-4.4a5.62,5.62,0,0,1,1.36-4,4.87,4.87,0,0,1,3.68-1.43A5.38,5.38,0,0,1,47.4,129a4.5,4.5,0,0,1,1.27,3.58l0,.06h-2.8a3.07,3.07,0,0,0-.5-2,2.17,2.17,0,0,0-1.69-.57,1.84,1.84,0,0,0-1.62.78,4.22,4.22,0,0,0-.54,2.39v4.42a4,4,0,0,0,.58,2.41,2,2,0,0,0,1.75.78,1.87,1.87,0,0,0,1.54-.57,3.19,3.19,0,0,0,.47-2Z" transform="translate(-38.62 -0.88)"/><path d="M55,139.07l.12.62h.06l.13-.59L57.83,128h3l-4.25,14.85h-3L49.39,128h3Z" transform="translate(-38.62 -0.88)"/><path d="M62.77,142.87H59.94v-2.58h2.83Z" transform="translate(-38.62 -0.88)"/><path d="M79.7,138.26l0,.06a4.55,4.55,0,0,1-1.22,3.57,5,5,0,0,1-3.59,1.19,5.15,5.15,0,0,1-3.81-1.41,5.48,5.48,0,0,1-1.4-4v-4.4a5.58,5.58,0,0,1,1.36-4,4.83,4.83,0,0,1,3.67-1.43A5.39,5.39,0,0,1,78.48,129a4.46,4.46,0,0,1,1.26,3.58l0,.06H76.93a3,3,0,0,0-.51-2,2.17,2.17,0,0,0-1.69-.57,1.84,1.84,0,0,0-1.62.78,4.22,4.22,0,0,0-.54,2.39v4.42a4.09,4.09,0,0,0,.58,2.41,2.06,2.06,0,0,0,1.76.78,1.9,1.9,0,0,0,1.54-.57,3.25,3.25,0,0,0,.47-2Z" transform="translate(-38.62 -0.88)"/><path d="M88.94,136.31H84.4v4.31h5.44v2.25H81.53V128h8.29v2.25H84.4v3.79h4.54Z" transform="translate(-38.62 -0.88)"/><path d="M102.19,142.87H99.31l-4.71-9.48h-.06v9.47H91.66V128h2.88l4.71,9.48h.06V128h2.88Z" transform="translate(-38.62 -0.88)"/><path d="M113.11,130.27h-3.49v12.6h-2.88v-12.6h-3.4V128h9.77Z" transform="translate(-38.62 -0.88)"/><path d="M117.39,136.91v6h-2.87V128H119a5,5,0,0,1,3.49,1.15,4.14,4.14,0,0,1,1.26,3.21,3.62,3.62,0,0,1-.53,2,3.74,3.74,0,0,1-1.55,1.35,2.86,2.86,0,0,1,1.68,1.28,4.51,4.51,0,0,1,.51,2.25v1.08a6,6,0,0,0,.14,1.3,1.67,1.67,0,0,0,.51,1v.22h-3a1.69,1.69,0,0,1-.45-1.07,10.37,10.37,0,0,1-.1-1.47v-1a2.9,2.9,0,0,0-.47-1.76,1.59,1.59,0,0,0-1.34-.62Zm0-2.24h1.55a1.77,1.77,0,0,0,1.41-.56,2.3,2.3,0,0,0,.49-1.58,2.61,2.61,0,0,0-.48-1.65,1.67,1.67,0,0,0-1.4-.61h-1.57Z" transform="translate(-38.62 -0.88)"/><path d="M132.63,139.65h-3.71l-.84,3.22h-3L129.29,128h3l4.21,14.85h-3Zm-3.12-2.26H132l-1.24-4.71h-.06Z" transform="translate(-38.62 -0.88)"/><path d="M140.55,140.62h5.54v2.25h-8.41V128h2.87Z" transform="translate(-38.62 -0.88)"/><path d="M155.31,140.62h5.54v2.25h-8.42V128h2.88Z" transform="translate(-38.62 -0.88)"/><path d="M172.44,137.52a5.49,5.49,0,0,1-1.48,4.09,6,6,0,0,1-7.86,0,5.52,5.52,0,0,1-1.47-4.09v-4.14a5.59,5.59,0,0,1,1.46-4.09A5.28,5.28,0,0,1,167,127.8a5.34,5.34,0,0,1,3.94,1.49,5.52,5.52,0,0,1,1.48,4.09Zm-2.86-4.17a3.87,3.87,0,0,0-.66-2.45,2.28,2.28,0,0,0-1.9-.82,2.23,2.23,0,0,0-1.89.82,4,4,0,0,0-.63,2.45v4.17a4.06,4.06,0,0,0,.63,2.48,2.59,2.59,0,0,0,3.8,0,4,4,0,0,0,.65-2.48Z" transform="translate(-38.62 -0.88)"/><path d="M184.39,140.91a5.23,5.23,0,0,1-1.83,1.53,6.5,6.5,0,0,1-3.09.64,4.95,4.95,0,0,1-5.32-5.39v-4.5a5.34,5.34,0,0,1,1.42-4,5,5,0,0,1,3.73-1.41A5.21,5.21,0,0,1,183,129a4.09,4.09,0,0,1,1.2,3.27l0,.06h-2.7a2.36,2.36,0,0,0-.51-1.69,2,2,0,0,0-1.54-.53,2.09,2.09,0,0,0-1.74.77,3.74,3.74,0,0,0-.62,2.34v4.52a3.71,3.71,0,0,0,.63,2.37,2.2,2.2,0,0,0,1.81.78,3.57,3.57,0,0,0,1.31-.2,1.83,1.83,0,0,0,.74-.53v-3h-2.27v-2h5.14Z" transform="translate(-38.62 -0.88)"/><path d="M193.05,139.65h-3.71l-.84,3.22h-3L189.72,128h3l4.22,14.85h-3Zm-3.12-2.26h2.53l-1.23-4.71h-.06Z" transform="translate(-38.62 -0.88)"/><path d="M204.54,139h.07l2.78-11h3.76v14.85H208.3v-9.36h-.06l-2.69,9.37h-1.92L201,133.58h-.06v9.29H198V128h3.74Z" transform="translate(-38.62 -0.88)"/></g></svg>