<svg xmlns="http://www.w3.org/2000/svg" version="1.1" xmlns:xlink="http://www.w3.org/1999/xlink" xmlns:svgjs="http://svgjs.com/svgjs" width="512" height="512" x="0" y="0" viewBox="0 0 512 512" style="enable-background:new 0 0 512 512" xml:space="preserve" class=""><g>
<rect xmlns="http://www.w3.org/2000/svg" x="33.172" y="129.803" style="" width="166.436" height="166.436" fill="#afafaf" data-original="#afafaf"></rect>
<g xmlns="http://www.w3.org/2000/svg">
	<rect x="208.694" y="108.169" style="" width="2.74" height="5.336" fill="#41464b" data-original="#41464b" class=""></rect>
	<path style="" d="M203.358,113.505h-5.192v-5.336h5.192V113.505z M192.829,113.505h-5.192v-5.336h5.336v5.336H192.829   z M182.301,113.505h-5.336v-5.336h5.336C182.301,108.169,182.301,113.505,182.301,113.505z M171.772,113.505h-5.336v-5.336h5.336   V113.505z M161.244,113.505h-5.336v-5.336h5.336V113.505z M150.715,113.505h-5.336v-5.336h5.336V113.505z M140.187,113.505h-5.336   v-5.336h5.336V113.505z M129.659,113.505h-5.336v-5.336h5.336V113.505L129.659,113.505z M119.13,113.505h-5.336v-5.336h5.336   V113.505z M108.602,113.505h-5.336v-5.336h5.336V113.505z M98.073,113.505h-5.336v-5.336h5.336V113.505z M87.545,113.505h-5.336   v-5.336h5.336V113.505z M76.872,113.505h-5.336v-5.336h5.336V113.505z M66.344,113.505h-5.336v-5.336h5.336V113.505z    M55.815,113.505h-5.336v-5.336h5.336V113.505z M45.287,113.505H39.95v-5.336h5.336V113.505z M34.758,113.505h-5.336v-5.336h5.336   V113.505z" fill="#41464b" data-original="#41464b" class=""></path>
	<rect x="21.49" y="108.169" style="" width="2.74" height="5.336" fill="#41464b" data-original="#41464b" class=""></rect>
	<rect x="208.694" y="312.536" style="" width="2.74" height="5.336" fill="#41464b" data-original="#41464b" class=""></rect>
	<path style="" d="M203.358,318.017h-5.192v-5.336h5.192V318.017z M192.829,318.017h-5.192v-5.336h5.336v5.336H192.829   z M182.301,318.017h-5.336v-5.336h5.336C182.301,312.681,182.301,318.017,182.301,318.017z M171.772,318.017h-5.336v-5.336h5.336   V318.017z M161.244,318.017h-5.336v-5.336h5.336V318.017z M150.715,318.017h-5.336v-5.336h5.336V318.017z M140.187,318.017h-5.336   v-5.336h5.336V318.017z M129.659,318.017h-5.336v-5.336h5.336V318.017L129.659,318.017z M119.13,318.017h-5.336v-5.336h5.336   V318.017z M108.602,318.017h-5.336v-5.336h5.336V318.017z M98.073,318.017h-5.336v-5.336h5.336V318.017z M87.545,318.017h-5.336   v-5.336h5.336V318.017z M76.872,318.017h-5.336v-5.336h5.336V318.017z M66.344,318.017h-5.336v-5.336h5.336V318.017z    M55.815,318.017h-5.336v-5.336h5.336V318.017z M45.287,318.017H39.95v-5.336h5.336V318.017z M34.758,318.017h-5.336v-5.336h5.336   V318.017z" fill="#41464b" data-original="#41464b" class=""></path>
	<rect x="21.49" y="312.536" style="" width="2.74" height="5.336" fill="#41464b" data-original="#41464b" class=""></rect>
	<rect x="11.538" y="305.325" style="" width="5.336" height="2.74" fill="#41464b" data-original="#41464b" class=""></rect>
	<path style="" d="M16.874,299.989h-5.336v-5.336h5.336V299.989z M16.874,289.46h-5.336v-5.336h5.336V289.46z    M16.874,278.932h-5.336v-5.336h5.336V278.932z M16.874,268.403h-5.336v-5.336h5.336V268.403z M16.874,257.875h-5.336v-5.336h5.336   V257.875z M16.874,247.346h-5.336v-5.336h5.336V247.346z M16.874,236.818h-5.336v-5.336h5.336V236.818z M16.874,226.29h-5.336   v-5.336h5.336V226.29z M16.874,215.761h-5.336v-5.336h5.336V215.761z M16.874,205.088h-5.336v-5.336h5.336V205.088z M16.874,194.56   h-5.336v-5.336h5.336V194.56z M16.874,184.032h-5.336v-5.192h5.336V184.032z M16.874,173.503h-5.336v-5.336h5.336V173.503z    M16.874,162.975h-5.336v-5.336h5.336V162.975z M16.874,152.446h-5.336v-5.336h5.336V152.446z M16.874,141.918h-5.336v-5.336h5.336   V141.918z M16.874,131.389h-5.336v-5.336h5.336V131.389z" fill="#41464b" data-original="#41464b" class=""></path>
	<rect x="11.538" y="118.121" style="" width="5.336" height="2.74" fill="#41464b" data-original="#41464b" class=""></rect>
	<rect x="216.05" y="305.325" style="" width="5.336" height="2.74" fill="#41464b" data-original="#41464b" class=""></rect>
	<path style="" d="M221.386,299.989h-5.336v-5.336h5.336V299.989z M221.386,289.46h-5.336v-5.336h5.336V289.46z    M221.386,278.932h-5.336v-5.336h5.336V278.932z M221.386,268.403h-5.336v-5.336h5.336V268.403z M221.386,257.875h-5.336v-5.336   h5.336V257.875z M221.386,247.346h-5.336v-5.336h5.336V247.346z M221.386,236.818h-5.336v-5.336h5.336V236.818z M221.386,226.29   h-5.336v-5.336h5.336V226.29z M221.386,215.761h-5.336v-5.336h5.336V215.761z M221.386,205.088h-5.336v-5.336h5.336V205.088z    M221.386,194.56h-5.336v-5.336h5.336V194.56z M221.386,184.032h-5.336v-5.192h5.336V184.032z M221.386,173.503h-5.336v-5.336   h5.336V173.503z M221.386,162.975h-5.336v-5.336h5.336V162.975z M221.386,152.446h-5.336v-5.336h5.336V152.446z M221.386,141.918   h-5.336v-5.336h5.336V141.918z M221.386,131.389h-5.336v-5.336h5.336V131.389z" fill="#41464b" data-original="#41464b" class=""></path>
	<rect x="216.05" y="118.121" style="" width="5.336" height="2.74" fill="#41464b" data-original="#41464b" class=""></rect>
	<path style="" d="M24.23,120.861H4.183v-20.047H24.23V120.861z M9.663,115.38h9.23v-9.23h-9.23V115.38z" fill="#41464b" data-original="#41464b" class=""></path>
	<path style="" d="M228.741,120.861h-20.047v-20.047h20.047V120.861z M214.03,115.38h9.23v-9.23h-9.23V115.38z" fill="#41464b" data-original="#41464b" class=""></path>
	<path style="" d="M24.23,325.228H4.183v-20.047H24.23V325.228z M9.663,319.892h9.23v-9.23h-9.23V319.892z" fill="#41464b" data-original="#41464b" class=""></path>
	<path style="" d="M228.741,325.228h-20.047v-20.047h20.047V325.228z M214.03,319.892h9.23v-9.23h-9.23V319.892z" fill="#41464b" data-original="#41464b" class=""></path>
</g>
<path xmlns="http://www.w3.org/2000/svg" style="" d="M474.79,382.197V148.552H81.632v294.22H474.79c16.73,0,30.287-13.557,30.287-30.287v-0.288  C504.933,395.466,491.376,382.197,474.79,382.197z" fill="#4cbed8" data-original="#4cbed8"></path>
<path xmlns="http://www.w3.org/2000/svg" style="" d="M474.79,423.446H100.814V167.734H474.79v5.336H106.15v244.895h368.64  c15.144,0,27.547-12.403,27.547-27.547h5.336C507.817,408.59,492.962,423.446,474.79,423.446z" fill="#ffffff" data-original="#ffffff"></path>
<g xmlns="http://www.w3.org/2000/svg">
	<polygon style="" points="84.228,296.239 78.891,296.239 78.891,145.812 474.79,145.812 474.79,151.148    84.228,151.148  " fill="#41464b" data-original="#41464b" class=""></polygon>
	<path style="" d="M474.79,445.368H344.266v-5.481H474.79c15.144,0,27.547-12.403,27.547-27.547h5.336   C507.817,430.513,492.962,445.368,474.79,445.368z" fill="#41464b" data-original="#41464b" class=""></path>
	<path style="" d="M507.817,412.34h-5.336c0-15.144-12.403-27.547-27.547-27.547h-2.74V115.524h2.74   c18.172,0,32.883,14.855,32.883,32.883V412.34L507.817,412.34z M477.53,379.601c10.384,0.865,19.47,6.49,24.807,14.711v-245.76   c0-14.278-10.961-26.105-24.807-27.403V379.601z" fill="#41464b" data-original="#41464b" class=""></path>
	<rect x="487.193" y="145.956" style="" width="5.336" height="5.336" fill="#41464b" data-original="#41464b" class=""></rect>
	<rect x="487.193" y="156.773" style="" width="5.336" height="5.336" fill="#41464b" data-original="#41464b" class=""></rect>
	<rect x="487.193" y="167.59" style="" width="5.336" height="5.336" fill="#41464b" data-original="#41464b" class=""></rect>
</g>
<g xmlns="http://www.w3.org/2000/svg">
	<rect x="374.121" y="380.466" style="" width="5.336" height="5.336" fill="#ffffff" data-original="#ffffff"></rect>
	<path style="" d="M368.64,385.803h-5.481v-5.336h5.481V385.803z M357.679,385.803h-5.481v-5.336h5.481V385.803z    M335.757,385.803h-5.481v-5.336h5.481V385.803z M324.795,385.803h-5.481v-5.336h5.481V385.803z M313.834,385.803h-5.481v-5.336   h5.481V385.803z M302.873,385.803h-5.481v-5.336h5.481V385.803z M291.912,385.803h-5.481v-5.336h5.481V385.803z M280.951,385.803   h-5.481v-5.336h5.481V385.803z M269.99,385.803h-5.481v-5.336h5.481V385.803z M259.029,385.803h-5.481v-5.336h5.481V385.803z    M248.068,385.803h-5.481v-5.336h5.481V385.803z M237.106,385.803h-5.481v-5.336h5.481V385.803z M226.145,385.803h-5.481v-5.336   h5.481V385.803z M215.184,385.803h-5.481v-5.336h5.481V385.803z" fill="#ffffff" data-original="#ffffff"></path>
	<rect x="198.887" y="380.466" style="" width="5.336" height="5.336" fill="#ffffff" data-original="#ffffff"></rect>
	<path style="" d="M204.223,374.986h-5.336v-5.481h5.336C204.223,369.505,204.223,374.986,204.223,374.986z    M204.223,364.025h-5.336v-5.481h5.336C204.223,358.544,204.223,364.025,204.223,364.025z M204.223,353.064h-5.336v-5.481h5.336   C204.223,347.583,204.223,353.064,204.223,353.064z M204.223,342.103h-5.336v-5.481h5.336   C204.223,336.622,204.223,342.103,204.223,342.103z M204.223,331.141h-5.336v-5.481h5.336   C204.223,325.661,204.223,331.141,204.223,331.141z M204.223,320.18h-5.336V314.7h5.336   C204.223,314.7,204.223,320.18,204.223,320.18z M204.223,309.219h-5.336v-5.481h5.336   C204.223,303.739,204.223,309.219,204.223,309.219z M204.223,298.258h-5.336v-5.481h5.336   C204.223,292.777,204.223,298.258,204.223,298.258z M204.223,287.297h-5.336v-5.481h5.336   C204.223,281.816,204.223,287.297,204.223,287.297z M204.223,276.336h-5.336v-5.481h5.336   C204.223,270.855,204.223,276.336,204.223,276.336z M204.223,265.375h-5.336v-5.481h5.336   C204.223,259.894,204.223,265.375,204.223,265.375z M204.223,254.413h-5.336v-5.481h5.336   C204.223,248.933,204.223,254.413,204.223,254.413z M204.223,243.452h-5.336v-5.481h5.336   C204.223,237.972,204.223,243.452,204.223,243.452z M204.223,232.491h-5.336v-5.481h5.336   C204.223,227.011,204.223,232.491,204.223,232.491z M204.223,221.53h-5.336v-5.481h5.336   C204.223,216.05,204.223,221.53,204.223,221.53z" fill="#ffffff" data-original="#ffffff"></path>
	<rect x="198.887" y="205.233" style="" width="5.336" height="5.336" fill="#ffffff" data-original="#ffffff"></rect>
	<path style="" d="M368.64,210.569h-5.481v-5.336h5.481V210.569z M357.679,210.569h-5.481v-5.336h5.481V210.569z    M346.718,210.569h-5.481v-5.336h5.481V210.569z M335.757,210.569h-5.481v-5.336h5.481V210.569z M324.795,210.569h-5.481v-5.336   h5.481V210.569z M313.834,210.569h-5.481v-5.336h5.481V210.569z M302.873,210.569h-5.481v-5.336h5.481V210.569z M291.912,210.569   h-5.481v-5.336h5.481V210.569z M280.951,210.569h-5.481v-5.336h5.481V210.569z M269.99,210.569h-5.481v-5.336h5.481V210.569z    M259.029,210.569h-5.481v-5.336h5.481V210.569z M248.068,210.569h-5.481v-5.336h5.481V210.569z M226.145,210.569h-5.481v-5.336   h5.481V210.569z M215.184,210.569h-5.481v-5.336h5.481V210.569z" fill="#ffffff" data-original="#ffffff"></path>
	<rect x="374.121" y="205.233" style="" width="5.336" height="5.336" fill="#ffffff" data-original="#ffffff"></rect>
	<path style="" d="M379.457,374.986h-5.336v-5.481h5.336V374.986z M379.457,364.025h-5.336v-5.481h5.336V364.025z    M379.457,353.064h-5.336v-5.481h5.336V353.064z M379.457,342.103h-5.336v-5.481h5.336V342.103z M379.457,331.141h-5.336v-5.481   h5.336V331.141z M379.457,320.18h-5.336V314.7h5.336V320.18z M379.457,309.219h-5.336v-5.481h5.336V309.219z M379.457,298.258   h-5.336v-5.481h5.336V298.258z M379.457,287.297h-5.336v-5.481h5.336V287.297z M379.457,276.336h-5.336v-5.481h5.336V276.336z    M379.457,265.375h-5.336v-5.481h5.336V265.375z M379.457,254.413h-5.336v-5.481h5.336V254.413z M379.457,243.452h-5.336v-5.481   h5.336V243.452z M379.457,232.491h-5.336v-5.481h5.336V232.491z M379.457,221.53h-5.336v-5.481h5.336V221.53z" fill="#ffffff" data-original="#ffffff"></path>
</g>
<g xmlns="http://www.w3.org/2000/svg">
	<path style="" d="M296.095,360.275h-13.846l-2.74-13.99c-2.452-0.433-4.904-1.154-7.355-2.019l-9.375,10.673   l-11.971-6.923l4.615-13.413c-1.875-1.586-3.75-3.461-5.336-5.336l-13.557,4.615l-6.923-11.971l10.673-9.375   c-0.865-2.452-1.442-4.904-2.019-7.211l-13.99-2.74v-13.846l13.99-2.74c0.433-2.452,1.154-4.904,2.019-7.355l-10.673-9.375   l6.923-11.971l13.557,4.615c1.586-1.875,3.461-3.75,5.336-5.336l-4.615-13.557l11.971-6.923l9.375,10.673   c2.308-0.865,4.759-1.442,7.211-2.019l2.74-13.99h13.846l2.74,13.99c2.452,0.433,4.904,1.154,7.211,1.875l9.375-10.673   l11.971,6.923l-4.615,13.557c1.875,1.587,3.75,3.461,5.336,5.336l13.557-4.615l6.923,11.971l-10.673,9.375   c0.865,2.308,1.442,4.759,2.019,7.355l13.99,2.74v13.846l-13.99,2.74c-0.433,2.452-1.154,4.904-1.875,7.211l10.673,9.375   l-6.923,11.971l-13.557-4.615c-1.586,1.875-3.461,3.75-5.336,5.336l4.615,13.413l-11.971,6.923l-9.375-10.673   c-2.308,0.865-4.759,1.442-7.211,2.019L296.095,360.275z M286.72,354.939h5.048l2.596-13.269l1.875-0.288   c3.317-0.577,6.634-1.442,9.807-2.596l1.731-0.721l8.942,10.24l4.327-2.452l-4.327-12.836l1.442-1.154   c2.596-2.163,5.048-4.615,7.211-7.211l1.154-1.442l12.836,4.327l2.452-4.327l-10.096-8.942l0.721-1.731   c1.154-3.029,2.163-6.346,2.596-9.807l0.288-1.875l13.269-2.596v-5.048l-13.269-2.596l-0.288-1.875   c-0.577-3.461-1.442-6.779-2.596-9.807l-0.721-1.731l10.24-8.942l-2.452-4.327l-12.836,4.327l-1.154-1.442   c-2.163-2.596-4.615-5.048-7.211-7.211l-1.442-1.154l4.327-12.836l-4.327-2.452l-8.942,10.096l-1.731-0.721   c-3.029-1.154-6.346-2.019-9.807-2.596l-1.875-0.288l-2.596-13.269h-5.048l-2.596,13.269l-1.875,0.288   c-3.461,0.577-6.634,1.442-9.807,2.596l-1.731,0.721l-8.942-10.24l-4.327,2.452l4.327,12.836l-1.442,1.154   c-2.596,2.163-5.048,4.615-7.211,7.211l-1.154,1.442l-12.836-4.327l-2.452,4.327l9.807,8.798l-0.721,1.731   c-1.298,3.173-2.163,6.49-2.596,9.807l-0.288,1.875l-13.269,2.596v5.048l13.269,2.596l0.288,1.875   c0.433,3.317,1.442,6.634,2.596,9.807l0.721,1.731l-10.096,9.086l2.452,4.327l12.836-4.327l1.154,1.442   c2.163,2.596,4.471,5.048,7.211,7.211l1.442,1.154l-4.327,12.836l4.327,2.452l8.942-10.096l1.731,0.721   c3.317,1.298,6.49,2.163,9.807,2.596l1.875,0.288L286.72,354.939z" fill="#41464b" data-original="#41464b" class=""></path>
	<path style="" d="M289.172,327.392c-17.595,0-31.874-14.278-31.874-31.874s14.278-31.874,31.874-31.874   s31.874,14.278,31.874,31.874S306.767,327.392,289.172,327.392z M289.172,268.98c-14.567,0-26.537,11.826-26.537,26.537   c0,14.567,11.826,26.537,26.537,26.537c14.567,0,26.537-11.826,26.537-26.537C315.709,280.951,303.739,268.98,289.172,268.98z" fill="#41464b" data-original="#41464b" class=""></path>
	<polygon style="" points="236.674,223.982 231.337,223.982 231.337,190.233 130.235,190.233 130.235,184.753    236.674,184.753  " fill="#41464b" data-original="#41464b" class=""></polygon>
	<rect x="130.235" y="194.993" style="" width="44.71" height="5.336" fill="#41464b" data-original="#41464b" class=""></rect>
	<rect x="130.235" y="205.233" style="" width="44.71" height="5.336" fill="#41464b" data-original="#41464b" class=""></rect>
	<polygon style="" points="448.108,406.283 341.67,406.283 341.67,367.053 347.006,367.053 347.006,400.946    448.108,400.946  " fill="#41464b" data-original="#41464b" class=""></polygon>
	<rect x="403.398" y="390.706" style="" width="44.71" height="5.336" fill="#41464b" data-original="#41464b" class=""></rect>
	<rect x="403.398" y="380.466" style="" width="44.71" height="5.336" fill="#41464b" data-original="#41464b" class=""></rect>
	<path style="" d="M443.493,231.049h-46.296v-46.296h46.296V231.049z M402.677,225.713h35.479v-35.479h-35.479V225.713   z" fill="#41464b" data-original="#41464b" class=""></path>
	
		<rect x="391.444" y="205.306" transform="matrix(0.7071 0.7071 -0.7071 0.7071 270.181 -236.3254)" style="" width="57.834" height="5.336" fill="#41464b" data-original="#41464b" class=""></rect>
	
		<rect x="417.682" y="179.043" transform="matrix(0.7071 0.7071 -0.7071 0.7071 270.1678 -236.3225)" style="" width="5.336" height="57.834" fill="#41464b" data-original="#41464b" class=""></rect>
	<rect x="128.072" y="390.706" style="" width="44.71" height="5.336" fill="#41464b" data-original="#41464b" class=""></rect>
	<rect x="128.072" y="380.466" style="" width="44.71" height="5.336" fill="#41464b" data-original="#41464b" class=""></rect>
	<rect x="128.072" y="400.946" style="" width="5.336" height="5.336" fill="#41464b" data-original="#41464b" class=""></rect>
	<rect x="138.889" y="400.946" style="" width="5.336" height="5.336" fill="#41464b" data-original="#41464b" class=""></rect>
	<rect x="149.706" y="400.946" style="" width="5.336" height="5.336" fill="#41464b" data-original="#41464b" class=""></rect>
	<path style="" d="M155.908,251.529h-25.816v-25.816h25.816V251.529z M135.428,246.048h14.999v-14.999h-14.999V246.048   z" fill="#41464b" data-original="#41464b" class=""></path>
	<path style="" d="M155.908,282.249h-25.816v-25.816h25.816C155.908,256.288,155.908,282.249,155.908,282.249z    M135.428,276.768h14.999v-14.999h-14.999V276.768z" fill="#41464b" data-original="#41464b" class=""></path>
	<path style="" d="M155.908,312.825h-25.816v-25.816h25.816V312.825z M135.428,307.488h14.999v-14.999h-14.999V307.488   z" fill="#41464b" data-original="#41464b" class=""></path>
</g>
<rect xmlns="http://www.w3.org/2000/svg" x="14.278" y="420.705" style="" width="330.132" height="43.845" fill="#ff7443" data-original="#ff7443"></rect>
<g xmlns="http://www.w3.org/2000/svg">
	<path style="" d="M347.006,467.29H11.538v-49.181h335.468L347.006,467.29L347.006,467.29z M16.874,461.81h324.651   v-38.364H16.874V461.81z" fill="#41464b" data-original="#41464b" class=""></path>
	<rect x="22.932" y="453.589" style="" width="5.336" height="10.961" fill="#41464b" data-original="#41464b" class=""></rect>
	<rect x="34.326" y="453.589" style="" width="5.336" height="10.961" fill="#41464b" data-original="#41464b" class=""></rect>
	<rect x="45.719" y="453.589" style="" width="5.336" height="10.961" fill="#41464b" data-original="#41464b" class=""></rect>
	<rect x="57.113" y="453.589" style="" width="5.336" height="10.961" fill="#41464b" data-original="#41464b" class=""></rect>
	<rect x="68.507" y="453.589" style="" width="5.336" height="10.961" fill="#41464b" data-original="#41464b" class=""></rect>
	<rect x="79.901" y="453.589" style="" width="5.336" height="10.961" fill="#41464b" data-original="#41464b" class=""></rect>
	<rect x="91.15" y="453.589" style="" width="5.336" height="10.961" fill="#41464b" data-original="#41464b" class=""></rect>
	<rect x="102.544" y="453.589" style="" width="5.336" height="10.961" fill="#41464b" data-original="#41464b" class=""></rect>
	<rect x="113.938" y="453.589" style="" width="5.336" height="10.961" fill="#41464b" data-original="#41464b" class=""></rect>
	<rect x="125.332" y="453.589" style="" width="5.336" height="10.961" fill="#41464b" data-original="#41464b" class=""></rect>
	<rect x="136.726" y="453.589" style="" width="5.336" height="10.961" fill="#41464b" data-original="#41464b" class=""></rect>
	<rect x="148.119" y="453.589" style="" width="5.336" height="10.961" fill="#41464b" data-original="#41464b" class=""></rect>
	<rect x="159.513" y="453.589" style="" width="5.336" height="10.961" fill="#41464b" data-original="#41464b" class=""></rect>
	<rect x="170.907" y="453.589" style="" width="5.336" height="10.961" fill="#41464b" data-original="#41464b" class=""></rect>
	<rect x="182.301" y="453.589" style="" width="5.336" height="10.961" fill="#41464b" data-original="#41464b" class=""></rect>
	<rect x="193.695" y="453.589" style="" width="5.336" height="10.961" fill="#41464b" data-original="#41464b" class=""></rect>
	<rect x="205.088" y="453.589" style="" width="5.336" height="10.961" fill="#41464b" data-original="#41464b" class=""></rect>
	<rect x="216.338" y="453.589" style="" width="5.336" height="10.961" fill="#41464b" data-original="#41464b" class=""></rect>
	<rect x="227.732" y="453.589" style="" width="5.336" height="10.961" fill="#41464b" data-original="#41464b" class=""></rect>
	<rect x="239.126" y="453.589" style="" width="5.336" height="10.961" fill="#41464b" data-original="#41464b" class=""></rect>
	<rect x="250.519" y="453.589" style="" width="5.336" height="10.961" fill="#41464b" data-original="#41464b" class=""></rect>
	<rect x="261.913" y="453.589" style="" width="5.336" height="10.961" fill="#41464b" data-original="#41464b" class=""></rect>
	<rect x="273.307" y="453.589" style="" width="5.336" height="10.961" fill="#41464b" data-original="#41464b" class=""></rect>
	<rect x="284.701" y="453.589" style="" width="5.336" height="10.961" fill="#41464b" data-original="#41464b" class=""></rect>
	<rect x="296.095" y="453.589" style="" width="5.336" height="10.961" fill="#41464b" data-original="#41464b" class=""></rect>
	<rect x="307.488" y="453.589" style="" width="5.336" height="10.961" fill="#41464b" data-original="#41464b" class=""></rect>
	<rect x="318.882" y="453.589" style="" width="5.336" height="10.961" fill="#41464b" data-original="#41464b" class=""></rect>
	<rect x="330.276" y="453.589" style="" width="5.336" height="10.961" fill="#41464b" data-original="#41464b" class=""></rect>
</g>
<rect xmlns="http://www.w3.org/2000/svg" x="115.092" y="486.905" style="" width="299.268" height="22.355" fill="#fed65c" data-original="#fed65c"></rect>
<path xmlns="http://www.w3.org/2000/svg" style="" d="M81.632,491.664c0-1.154,0.433-2.452,1.442-3.461c1.01-0.865,2.163-1.442,3.461-1.442h6.346v22.355  h-6.346c-1.154,0-2.452-0.433-3.461-1.442c-1.01-0.865-1.442-2.163-1.442-3.461V491.664z" fill="#afafaf" data-original="#afafaf"></path>
<g xmlns="http://www.w3.org/2000/svg">
	<polygon style="" points="415.369,511.856 413.638,506.808 439.599,498.154 413.638,489.501 415.369,484.309    456.617,498.154  " fill="#454545" data-original="#454545"></polygon>
	<rect x="434.118" y="494.404" style="" width="5.336" height="7.5" fill="#454545" data-original="#454545"></rect>
	<path style="" d="M414.504,512H115.092c-1.442,0-2.74-1.154-2.74-2.74v-22.355c0-1.442,1.154-2.74,2.74-2.74h299.268   c0.721,0,1.442,0.288,1.875,0.721c0.577,0.577,0.721,1.154,0.721,1.875v22.355C417.244,510.846,415.946,512,414.504,512z    M117.832,506.664h293.931v-17.019H117.832C117.832,489.645,117.832,506.664,117.832,506.664z" fill="#454545" data-original="#454545"></path>
	<rect x="115.092" y="495.414" style="" width="299.268" height="5.336" fill="#454545" data-original="#454545"></rect>
	<path style="" d="M117.832,512H89.997v-27.835h27.835V512L117.832,512z M95.477,506.664h17.019v-17.019H95.477   V506.664z" fill="#454545" data-original="#454545"></path>
	<path style="" d="M95.477,512h-9.086c-2.019,0-3.894-0.721-5.336-2.163s-2.163-3.317-2.163-5.336v-12.836   c0-2.019,0.721-3.894,2.163-5.336c1.442-1.442,3.317-2.163,5.336-2.163h9.086V512z M86.391,489.645   c-0.577,0-1.154,0.288-1.442,0.577c-0.433,0.433-0.577,0.865-0.577,1.442V504.5c0,0.577,0.144,1.154,0.577,1.442   c0.433,0.433,0.865,0.577,1.442,0.577h3.75v-17.019h-3.75V489.645z" fill="#454545" data-original="#454545"></path>
	<rect x="101.246" y="486.905" style="" width="5.336" height="22.355" fill="#454545" data-original="#454545"></rect>
</g>
<g xmlns="http://www.w3.org/2000/svg">
	<path style="" d="M301.719,40.672c-7.932,0-14.423-6.49-14.423-14.423s6.49-14.423,14.423-14.423   s14.423,6.49,14.423,14.423C315.998,34.181,309.652,40.672,301.719,40.672z M301.719,17.307c-4.904,0-8.942,4.038-8.942,8.942   s4.038,8.942,8.942,8.942s8.942-4.038,8.942-8.942C310.661,21.345,306.623,17.307,301.719,17.307z" fill="#41464b" data-original="#41464b" class=""></path>
	<path style="" d="M301.719,92.016c-16.874,0-33.605-6.346-46.441-19.182l3.75-3.75   c23.509,23.509,61.873,23.509,85.381,0l3.75,3.75C335.324,85.526,318.45,92.016,301.719,92.016z" fill="#41464b" data-original="#41464b" class=""></path>
	
		<rect x="280.406" y="34.896" transform="matrix(0.9565 0.2916 -0.2916 0.9565 36.7154 -78.909)" style="" width="5.336" height="97.637" fill="#41464b" data-original="#41464b" class=""></rect>
	
		<rect x="271.425" y="81.055" transform="matrix(0.2917 0.9565 -0.9565 0.2917 306.9102 -247.0164)" style="" width="97.64" height="5.336" fill="#41464b" data-original="#41464b" class=""></rect>
	<rect x="298.979" style="" width="5.336" height="14.567" fill="#41464b" data-original="#41464b" class=""></rect>
	<rect x="288.162" y="127.639" style="" width="5.336" height="5.336" fill="#41464b" data-original="#41464b" class=""></rect>
	<rect x="298.979" y="127.639" style="" width="5.336" height="5.336" fill="#41464b" data-original="#41464b" class=""></rect>
	<rect x="309.796" y="127.639" style="" width="5.336" height="5.336" fill="#41464b" data-original="#41464b" class=""></rect>
</g>
<rect xmlns="http://www.w3.org/2000/svg" x="379.313" y="66.776" style="" width="63.603" height="63.603" fill="#fed65c" data-original="#fed65c"></rect>
<g xmlns="http://www.w3.org/2000/svg">
	<path style="" d="M477.53,101.39h-69.084V32.306h69.084V101.39z M413.783,95.91h58.267V37.643h-58.267V95.91z" fill="#41464b" data-original="#41464b" class=""></path>
	<rect x="81.632" y="76.439" style="" width="121.582" height="5.336" fill="#41464b" data-original="#41464b" class=""></rect>
	<rect x="81.632" y="86.679" style="" width="60.863" height="5.336" fill="#41464b" data-original="#41464b" class=""></rect>
</g>
<rect xmlns="http://www.w3.org/2000/svg" x="58.988" y="76.584" style="" width="15.288" height="15.288" fill="#ff7443" data-original="#ff7443"></rect>
<g xmlns="http://www.w3.org/2000/svg">
	<rect x="81.632" y="35.479" style="" width="121.582" height="5.336" fill="#41464b" data-original="#41464b" class=""></rect>
	<rect x="81.632" y="45.719" style="" width="60.863" height="5.336" fill="#41464b" data-original="#41464b" class=""></rect>
</g>
<rect xmlns="http://www.w3.org/2000/svg" x="58.988" y="35.624" style="" width="15.288" height="15.288" fill="#ff7443" data-original="#ff7443"></rect>
<g xmlns="http://www.w3.org/2000/svg">
	<rect x="63.892" y="40.672" style="" width="5.336" height="5.336" fill="#41464b" data-original="#41464b" class=""></rect>
	<rect x="81.632" y="55.959" style="" width="121.582" height="5.336" fill="#41464b" data-original="#41464b" class=""></rect>
	<rect x="81.632" y="66.199" style="" width="60.863" height="5.336" fill="#41464b" data-original="#41464b" class=""></rect>
</g>
<rect xmlns="http://www.w3.org/2000/svg" x="58.988" y="56.104" style="" width="15.288" height="15.288" fill="#ff7443" data-original="#ff7443"></rect>
<rect xmlns="http://www.w3.org/2000/svg" x="63.892" y="61.007" style="" width="5.336" height="5.336" fill="#41464b" data-original="#41464b" class=""></rect>
<g xmlns="http://www.w3.org/2000/svg">
</g>
<g xmlns="http://www.w3.org/2000/svg">
</g>
<g xmlns="http://www.w3.org/2000/svg">
</g>
<g xmlns="http://www.w3.org/2000/svg">
</g>
<g xmlns="http://www.w3.org/2000/svg">
</g>
<g xmlns="http://www.w3.org/2000/svg">
</g>
<g xmlns="http://www.w3.org/2000/svg">
</g>
<g xmlns="http://www.w3.org/2000/svg">
</g>
<g xmlns="http://www.w3.org/2000/svg">
</g>
<g xmlns="http://www.w3.org/2000/svg">
</g>
<g xmlns="http://www.w3.org/2000/svg">
</g>
<g xmlns="http://www.w3.org/2000/svg">
</g>
<g xmlns="http://www.w3.org/2000/svg">
</g>
<g xmlns="http://www.w3.org/2000/svg">
</g>
<g xmlns="http://www.w3.org/2000/svg">
</g>
</g></svg>