<svg xmlns="http://www.w3.org/2000/svg" version="1.1" xmlns:xlink="http://www.w3.org/1999/xlink" xmlns:svgjs="http://svgjs.com/svgjs" width="512" height="512" x="0" y="0" viewBox="0 0 33.866666 33.866668" style="enable-background:new 0 0 512 512" xml:space="preserve" class=""><g><linearGradient xmlns="http://www.w3.org/2000/svg" id="linearGradient3363" gradientUnits="userSpaceOnUse" x1="-180.440378" x2="-180.440378" y1="97.375304" y2="99.607314"><stop id="stop2198" offset="0" stop-color="#f6f600"></stop><stop id="stop2200" offset="1" stop-color="#f69134"></stop></linearGradient><linearGradient xmlns="http://www.w3.org/2000/svg" id="linearGradient4814" gradientUnits="userSpaceOnUse" x1="-1265.339" x2="-1265.339" y1="13.3525" y2="-18.845"><stop id="stop1994" offset="0" stop-color="#0056ff"></stop><stop id="stop1996" offset="1" stop-color="#0dcfee"></stop></linearGradient><linearGradient xmlns="http://www.w3.org/2000/svg" id="linearGradient4812" gradientUnits="userSpaceOnUse" x1="-1275.12855" x2="-1256.83206" y1="-10.967559" y2="4.300815"><stop id="stop3724" offset="0" stop-color="#f5f8ff"></stop><stop id="stop3726" offset="1" stop-color="#a0c9ff"></stop></linearGradient><linearGradient xmlns="http://www.w3.org/2000/svg" id="linearGradient4794" gradientUnits="userSpaceOnUse" x1="-1266.426327" x2="-1266.426327" y1="-7.272782" y2=".300102"><stop id="stop3142" offset="0" stop-color="#0cc8ef"></stop><stop id="stop3144" offset="1" stop-color="#047afa"></stop></linearGradient><g xmlns="http://www.w3.org/2000/svg" id="layer1"><g id="g3589" transform="translate(1282.299 19.905)"><path id="path4344" d="m-1265.3658-18.846907c-4.2852 0-7.8597 2.97708-9.8015 2.97708-1.4477 0-4.7537-.33141-4.7537 3.93929v9.15707c0 10.37167 11.5257 15.67656 14.5552 15.67656 3.0294 0 14.5551-5.30489 14.5551-15.67656v-9.15707c0-4.2707-3.306-3.93929-4.7537-3.93929-1.9418 0-5.5163-2.97708-9.8014-2.97708z" fill="url(#linearGradient4814)" stroke-linecap="square" stroke-width="2.646" paint-order="markers fill stroke" data-original="url(#linearGradient4814)"></path><path id="path4346" d="m-1265.3658-13.592537c-2.8669 0-5.2583 1.99171-6.5574 1.99171-.9685 0-3.1803-.22172-3.1803 2.63545v6.12623c0 6.93881 7.7109 10.48786 9.7377 10.48786 2.0267 0 9.7376-3.54905 9.7376-10.48786v-6.12623c0-2.85717-2.2118-2.63545-3.1803-2.63545-1.2991 0-3.6905-1.99171-6.5573-1.99171z" fill="url(#linearGradient4812)" stroke-linecap="square" stroke-width="1.77" paint-order="markers fill stroke" data-original="url(#linearGradient4812)"></path><path id="path4372" d="m-1262.0926-8.208497-4.519 3.33719-2.0915-.90965c-1.3381-.68436-2.5531.42325-1.7735 1.77349l2.3862 3.56810999c.7232.92091738 2.2335.9257839 2.9554-.002l4.8138-5.99564999c.9541-1.29198-.4728-2.66666-1.7714-1.77132z" fill="url(#linearGradient4794)" font-variant-ligatures="normal" font-variant-position="normal" font-variant-caps="normal" font-variant-numeric="normal" font-variant-alternates="normal" font-variant-east-asian="normal" font-feature-settings="normal" font-variation-settings="normal" text-indent="0" text-align="start" text-decoration-line="none" text-decoration-style="solid" text-decoration-color="#000000" text-transform="none" text-orientation="mixed" white-space="normal" shape-padding="0" shape-margin="0" inline-size="0" isolation="auto" mix-blend-mode="normal" solid-color="#000000" solid-opacity="1" vector-effect="none" paint-order="markers fill stroke" data-original="url(#linearGradient4794)"></path><path id="path4382" d="m-1272.6632-7.398737v.52734h.2637v-.52734zm14.1387.66211v.52929h.2636v-.52929zm-14.1387.66015v.5293h.2637v-.5293zm14.1387.66407v.52734h.2636v-.52734zm-14.1387.6582v.5293h.2637v-.5293zm14.1387.66406v.5293h.2636v-.5293zm-14.1387.66016v.52734h.2637v-.52734zm14.1367.66015-.02.52344.2637.0137.022-.5332zm-13.834.64454-.2636.0312.076.52929.2617-.041zm13.6953.64062-.1269.50976999.2558.0684.1289-.51757999zm-13.4277.62499999-.25.084.1797.50196.248-.0918zm13.0313.60742-.2266.46875.2344.12305.2343-.48438zm-12.5176.58008-.2266.13477.2774.45507.2226-.14257zm11.8906.55469-.3086.42383001.2109.1582.3145-.42969zm-11.1602.52148001-.2031.16797.3457.4043.1992-.17383zm10.3418.49219-.3691.36914.1836.19141.3769-.37891zm-9.4492.45508-.1758.19922.4004.34765.1719-.20117zm8.4903.42578-.4161.31836.1563.21289.4238-.32227zm-7.4747.39258-.1484.21875.4414.29492.1465-.2207zm6.4082.36133-.4531.26367.1289.23047.461-.26953zm-5.2929.32421-.125.23243.4785.24023.1133-.23828zm4.1445.29102-.4883.20312.1035.24415.4864-.20313zm-2.959.24414-.086.25.5098.16211.074-.25391zm1.7383.19141-.5098.082.029.26367.5352-.0879z" fill="#6e98f5" font-variant-ligatures="normal" font-variant-position="normal" font-variant-caps="normal" font-variant-numeric="normal" font-variant-alternates="normal" font-variant-east-asian="normal" font-feature-settings="normal" font-variation-settings="normal" text-indent="0" text-align="start" text-decoration-line="none" text-decoration-style="solid" text-decoration-color="#000000" text-transform="none" text-orientation="mixed" white-space="normal" shape-padding="0" shape-margin="0" inline-size="0" isolation="auto" mix-blend-mode="normal" solid-color="#000000" solid-opacity="1" vector-effect="none" paint-order="markers fill stroke" data-original="#6e98f5"></path></g></g></g></svg>