<svg xmlns="http://www.w3.org/2000/svg" version="1.1" xmlns:xlink="http://www.w3.org/1999/xlink" xmlns:svgjs="http://svgjs.com/svgjs" width="512" height="512" x="0" y="0" viewBox="0 0 512 512" style="enable-background:new 0 0 512 512" xml:space="preserve" class=""><g><g xmlns="http://www.w3.org/2000/svg"><path d="m388.663 454.464c61.399-44.522 101.341-116.823 101.341-198.464 0-135.311-109.691-245.002-245.002-245.002-135.311 0-245.002 109.691-245.002 245.002 0 30.361 5.538 59.425 15.633 86.256z" fill="#2a428c" data-original="#2a428c" class=""></path><path d="m398.446 417.955 51.674-192.852c-.139.262-.271.526-.42.784l-91.909 159.191c.86 13.162 7.172 35.668 40.655 32.877z" fill="#deeeff" data-original="#deeeff" class=""></path><path d="m358.458 383.923-64.802 112.24c34.936-7.04 67.173-21.517 95.006-41.699l10.385-38.758c-33.886 3.594-39.866-19.042-40.589-31.783z" fill="#bec8f7" data-original="#bec8f7"></path><g><path d="m326.826 121.574c-2.095-1.209-3.506-3.473-3.505-6.066-.001-6.827 2.877-16.978 16.591-26.561 3.168-2.214 7.53-1.439 9.748 1.729 2.214 3.169 1.44 7.533-1.729 9.748-4.841 3.382-10.611 8.745-10.612 15.083.001 3.866-3.133 7-6.999 7-1.272 0-2.466-.339-3.494-.933z" fill="#ffc839" data-original="#ffc839" class=""></path></g><g><path d="m380.79 85.673c-1.714-.99-3.001-2.697-3.387-4.797-.7-3.802 1.815-7.451 5.618-8.15 11.004-2.025 22.659-3.052 34.64-3.053 8.113.001 16.154.479 23.903 1.42 3.841.465 6.572 3.955 6.106 7.792-.466 3.838-3.955 6.572-7.792 6.106-7.192-.873-14.666-1.316-22.217-1.317-11.132 0-21.935.95-32.106 2.821-1.703.312-3.375-.02-4.765-.822z" fill="#ffc839" data-original="#ffc839" class=""></path></g><path d="m452.061 200.636-62.437-121.201c-10.815-20.995-32.893-33.741-56.482-32.61l-77.088 3.695c-5.98 9.517-16.76 30.606-12.583 53.812 3.3 18.329 15.312 33.969 35.7 46.485 14.687 9.016 23.555 21.463 26.359 36.996 7.653 42.393-31.865 95.166-34.664 98.834-1.551 1.021-9.601 6.761-11.672 17.177-1.577 7.938.727 16.478 6.852 25.407-2.284 1.305-6.685 4.128-10.565 8.421-7.317 8.098-9.177 17.485-5.376 27.148 3.214 8.175-1.444 11.622-9.311 16.571-8.954 5.633-20.052 12.615-10.978 32.522-4.364 2.643-18.696 12.395-20.94 27.653-1.523 10.354 2.885 20.959 13.103 31.537-2.019 2.606-6.467 9.525-4.967 18.304.494 2.888 1.583 5.682 3.253 8.376 8.135.815 16.387 1.237 24.738 1.237 17.591 0 34.743-1.87 51.284-5.393l155.146-268.722c4.66-8.071 4.897-17.961.628-26.249zm-99.352-72.198c-6.943 12.026-22.321 16.146-34.347 9.203s-16.146-22.321-9.203-34.347 22.321-16.146 34.347-9.203 16.147 22.321 9.203 34.347z" fill="#ff4155" data-original="#ff4155" class=""></path><path d="m271.895 287.77s75.605-96.768 8.061-138.23c-56.905-34.933-31.469-84.393-22.044-99.108l-60.953 2.922c-9.312.447-17.759 5.598-22.42 13.671l-158.906 275.231c32.338 85.948 111.585 148.913 206.547 157.687-9.879-14.492 1.82-26.94 1.82-26.94-35.333-35.333 7.761-58.5 7.761-58.5-16.989-35 28.489-28 19.739-50.25s16.75-34.5 16.75-34.5c-20-27.501 3.645-41.983 3.645-41.983z" fill="#e80054" data-original="#e80054" class=""></path><g><g><g><path d="m172.603 359.972-22.856-13.196c-4.783-2.761-6.421-8.878-3.66-13.66l31.318-54.244c2.761-4.783 8.878-6.421 13.66-3.66l22.856 13.196c4.783 2.761 6.421 8.878 3.66 13.66s-8.878 6.421-13.66 3.66l-14.196-8.196-21.318 36.924 14.196 8.196c4.783 2.761 6.421 8.878 3.66 13.66s-8.878 6.421-13.66 3.66z" fill="#deeeff" data-original="#deeeff" class=""></path></g><g><path d="m186.577 331.877-21.171-12.223c-4.783-2.761-6.421-8.878-3.66-13.66s8.878-6.421 13.66-3.66l21.171 12.223c4.783 2.761 6.421 8.878 3.66 13.66s-8.877 6.421-13.66 3.66z" fill="#deeeff" data-original="#deeeff" class=""></path></g></g><g><g><path d="m107.023 283.116c-2.289-1.322-3.963-3.497-4.654-6.051-.694-2.568-.336-5.306.994-7.61l14.578-25.249c2.761-4.783 8.878-6.421 13.66-3.66l15.901 9.181c11.721 6.767 15.752 21.809 8.984 33.53s-21.809 15.751-33.53 8.984c-3.441-1.987-15.893-9.101-15.895-9.102-.012-.008-.025-.016-.038-.023zm23.238-20.25-4.557 7.893c2.948 1.687 5.848 3.349 7.253 4.16 2.171 1.253 4.956.507 6.209-1.663 1.253-2.171.507-4.956-1.664-6.21z" fill="#deeeff" data-original="#deeeff" class=""></path></g><g><path d="m89.994 312.61c-2.289-1.322-3.963-3.497-4.654-6.051-.694-2.568-.336-5.306.994-7.61l17.052-29.535c2.761-4.783 8.878-6.422 13.66-3.66l18.679 10.784c12.9 7.448 17.336 24.003 9.888 36.903s-24.003 17.336-36.903 9.888c-4.027-2.325-18.676-10.696-18.677-10.697-.013-.007-.026-.014-.039-.022zm25.713-24.535-7.032 12.179c3.949 2.26 8.151 4.667 10.036 5.755 3.35 1.934 7.648.782 9.582-2.568s.782-7.648-2.568-9.582z" fill="#deeeff" data-original="#deeeff" class=""></path></g></g><g><g><path d="m242.26 328.185c-2.077-.489-3.81-.078-4.757 1.126-.372.473-.721 1.188-.481 2.06 1.617 2.19 6.118 8.208 11.156 14.265 11.699 14.066 9.117 27.087 2.801 34.582-8.324 9.876-23.377 11.84-35.796 4.67-9.764-5.637-16.696-14.83-19.076-25.269-1.212-5.314 1.899-10.843 7.178-12.202 5.533-1.424 11.087 2.042 12.281 7.571 1.084 5.026 4.68 9.728 9.617 12.579 4.728 2.729 9.062 1.471 10.503-.238 1.677-1.991-.39-5.905-2.884-8.903-6.727-8.085-12.368-15.849-12.604-16.176-.31-.427-.584-.876-.823-1.347-3.974-7.832-3.052-17.01 2.404-23.951 5.781-7.355 15.383-10.512 25.059-8.236 14.891 3.507 23.202 16.387 25.765 23.449 2.087 5.032-.325 10.802-5.373 12.851-4.927 2-10.562-.153-12.901-4.928-2.701-5.519-5.895-10.452-12.069-11.903z" fill="#deeeff" data-original="#deeeff" class=""></path></g></g><g><g><path d="m316.272 370.26-30.232-17.455c-4.783-2.761-6.421-8.878-3.66-13.66s8.878-6.421 13.66-3.66l30.232 17.455c4.783 2.761 6.421 8.878 3.66 13.66s-8.877 6.421-13.66 3.66z" fill="#deeeff" data-original="#deeeff" class=""></path></g><g><path d="m269.488 416.241c-4.783-2.761-6.421-8.878-3.66-13.66l30.597-52.996c2.761-4.783 8.878-6.421 13.66-3.66s6.421 8.878 3.66 13.66l-30.597 52.996c-2.761 4.783-8.877 6.422-13.66 3.66z" fill="#deeeff" data-original="#deeeff" class=""></path></g></g></g><g><g><g><path d="m142.849 434.76c-3.348-1.933-4.495-6.214-2.562-9.562l27.585-47.779c1.933-3.348 6.214-4.495 9.562-2.562s4.495 6.214 2.562 9.562l-27.585 47.779c-1.933 3.348-6.214 4.495-9.562 2.562z" fill="#ffdd40" data-original="#ffdd40" class=""></path></g></g><g><g><path d="m241.543 491.45-19.947-11.517c-3.348-1.933-4.495-6.214-2.562-9.562l27.333-47.343c1.933-3.348 6.214-4.495 9.562-2.562l19.947 11.517c3.348 1.933 4.495 6.214 2.562 9.562s-6.214 4.495-9.562 2.562l-13.885-8.017-20.333 35.219 13.885 8.017c3.348 1.933 4.495 6.214 2.562 9.562s-6.214 4.495-9.562 2.562z" fill="#ffdd40" data-original="#ffdd40" class=""></path></g><g><path d="m253.739 466.93-18.477-10.667c-3.348-1.933-4.495-6.214-2.562-9.562s6.214-4.495 9.562-2.562l18.477 10.667c3.348 1.933 4.495 6.214 2.562 9.562s-6.214 4.495-9.562 2.562z" fill="#ffdd40" data-original="#ffdd40" class=""></path></g></g><g><g><path d="m186.587 460.012c-16.515-9.535-22.194-30.729-12.659-47.244s30.729-22.194 47.244-12.659c6.001 3.465 10.772 8.579 13.795 14.789 1.693 3.476.247 7.666-3.229 9.358-3.475 1.693-7.664.251-9.359-3.229-1.796-3.69-4.634-6.731-8.208-8.794-9.83-5.675-22.444-2.295-28.12 7.535s-2.295 22.444 7.535 28.12c3.635 2.099 7.312 2.783 10.931 2.034.707-.147 1.419-.349 2.119-.604 3.632-1.321 7.65.551 8.972 4.184s-.552 7.651-4.184 8.972c-1.336.486-2.706.876-4.071 1.157-6.981 1.446-14.163.194-20.766-3.619z" fill="#ffdd40" data-original="#ffdd40" class=""></path></g></g><g><g><path d="m120.874 422.073c-1.682-.971-2.954-2.632-3.366-4.686l-6.904-34.392c-.76-3.79 1.695-7.48 5.485-8.241 3.791-.759 7.481 1.696 8.241 5.485l6.904 34.392c.76 3.79-1.695 7.48-5.485 8.241-1.737.349-3.453.022-4.875-.799z" fill="#ffdd40" data-original="#ffdd40" class=""></path></g><g><path d="m95.039 407.157c-3.348-1.933-4.495-6.214-2.562-9.562l27.585-47.779c1.933-3.348 6.214-4.495 9.562-2.562s4.495 6.214 2.562 9.562l-27.585 47.779c-1.933 3.348-6.213 4.495-9.562 2.562z" fill="#ffdd40" data-original="#ffdd40" class=""></path></g><g><path d="m108.358 384.327c-3.33-1.923-4.487-6.177-2.583-9.524 0 0 5.165-9.076 7.166-12.543 1.637-2.835 7.126-12.416 7.126-12.416.925-1.614 2.454-2.794 4.25-3.278 1.797-.485 3.712-.234 5.323.696l12.696 7.33c10.577 6.106 14.396 19.365 8.513 29.554s-19.274 13.511-29.851 7.404c-3.513-2.028-12.601-7.202-12.603-7.203-.012-.005-.024-.012-.037-.02zm20.363-21.428c-1.434 2.499-2.927 5.099-3.656 6.362-.857 1.484-2.297 4.003-3.659 6.39 2.448 1.398 5.052 2.888 6.592 3.777 3.825 2.208 8.738 1.165 10.727-2.28s.437-8.221-3.389-10.43z" fill="#ffdd40" data-original="#ffdd40" class=""></path></g></g><g><g><path d="m48.474 380.272c-3.348-1.933-4.495-6.214-2.562-9.562l27.585-47.779c1.933-3.348 6.214-4.495 9.562-2.562s4.495 6.214 2.562 9.562l-27.585 47.779c-1.933 3.349-6.214 4.496-9.562 2.562z" fill="#ffdd40" data-original="#ffdd40" class=""></path></g><g><path d="m60.548 359.572c-1.594-.92-2.762-2.433-3.25-4.208-.491-1.791-.252-3.703.667-5.317 0 0 5.608-9.85 7.781-13.613 1.777-3.078 7.74-13.482 7.74-13.482.925-1.614 2.455-2.793 4.251-3.279 1.796-.484 3.711-.233 5.323.697l13.303 7.681c10.923 6.306 14.747 20.205 8.525 30.982s-20.172 14.415-31.094 8.109c-3.681-2.125-13.206-7.545-13.207-7.546-.014-.009-.027-.016-.039-.024zm21.591-23.568c-1.644 2.866-3.426 5.969-4.269 7.429-.994 1.721-2.709 4.722-4.273 7.462 2.648 1.511 5.523 3.155 7.197 4.121 4.166 2.405 9.647 1.039 11.97-2.984 2.322-4.022.765-9.452-3.401-11.857z" fill="#ffdd40" data-original="#ffdd40" class=""></path></g></g></g><g><path d="m345.085 145.353c-13.806-7.971-21.765-18.349-21.765-29.846.001-3.866 3.135-7 7-7 3.867.002 7 3.135 7 7-.001 6.126 5.512 12.57 15.48 18.11 11.312 6.293 27.372 10.803 45.22 12.7 3.846.411 6.629 3.859 6.221 7.701-.409 3.845-3.857 6.63-7.701 6.221-21.012-2.233-38.722-7.535-51.455-14.886z" fill="#ffdd40" data-original="#ffdd40" class=""></path></g><path d="m302.903 164.418c-8.425-4.864-17.514-7.536-26.607-8.197l.293.353c-4.102 6.024-7.987 17.566 2.116 25.775 2.449 1.99 3.781 4.393 4.071 7.344.802 8.163-6.744 17.365-6.82 17.457l-.619.746.201.947c.071.336 6.938 33.66-8.102 40.564l-1.331.611.606 4.883c-1.857 1.816-6.092 6.67-5.819 12.975.2 4.608 2.734 8.9 7.53 12.79 22.669 1.186 45.176-10.074 57.304-31.081 17.215-29.819 6.998-67.95-22.823-85.167z" fill="#ffdd40" data-original="#ffdd40" class=""></path><path d="m240.556 272.407c9.881 5.705 20.674 8.38 31.316 8.346-18.269-12.557-3.05-25.074-3.05-25.074l-.553-4.453c16.668-7.652 9.225-42.797 9.225-42.797s14.72-17.68 2.473-27.632c-12.247-9.951-.841-24.299-.841-24.299-24.013-2.858-48.534 8.472-61.391 30.741-17.217 29.82-6.999 67.951 22.821 85.168z" fill="#ffc839" data-original="#ffc839" class=""></path><g><path d="m248.864 258.017c-3.189-1.841-4.282-5.92-2.441-9.109l39.063-67.659c1.841-3.189 5.92-4.282 9.109-2.441s4.282 5.92 2.441 9.109l-39.063 67.659c-1.841 3.189-5.92 4.282-9.109 2.441z" fill="#ffea89" data-original="#ffea89"></path></g><g><path d="m252.412 252.559c-6.543-3.777-9.983-6.732-13.752-14.191-1.661-3.286-.343-7.297 2.944-8.959 3.285-1.662 7.297-.345 8.959 2.944 2.473 4.894 3.841 6.007 9.092 8.985 5.164 2.935 10.362.824 13.007-2.379 1.274-1.543 3.776-5.617-.164-10.407l-11.132-11.012c-.132-.13-.258-.266-.379-.407-7.117-8.323-7.306-19.478-.472-27.757 6.274-7.599 18.552-11.922 29.881-5.482 6.964 3.96 10.511 6.862 14.403 14.564 1.661 3.287.342 7.298-2.944 8.959-3.287 1.661-7.297.342-8.959-2.944-2.472-4.893-3.823-5.995-9.092-8.985-5.163-2.936-10.361-.825-13.006 2.379-1.274 1.543-3.776 5.617.163 10.407l11.132 11.012c.132.13.258.266.379.407 7.117 8.323 7.306 19.478.472 27.756-6.273 7.6-18.553 11.923-29.882 5.483-.219-.126-.436-.25-.65-.373z" fill="#fff6d2" data-original="#fff6d2"></path></g><g><path d="m237.055 278.469c-33.115-19.119-44.501-61.615-25.382-94.73 13.891-24.059 40.692-37.483 68.283-34.2 3.838.457 6.581 3.938 6.123 7.779-.457 3.838-3.939 6.58-7.779 6.123-22.022-2.621-43.416 8.094-54.503 27.298-15.259 26.43-6.172 60.347 20.258 75.606 8.467 4.889 18.079 7.456 27.794 7.425 3.87-.012 7.009 3.113 7.022 6.977.013 3.866-3.112 7.01-6.977 7.022-12.184.04-24.232-3.176-34.839-9.3z" fill="#ff8f33" data-original="#ff8f33" class=""></path></g><g><path d="m268.378 286.836c-2.088-1.206-3.497-3.459-3.505-6.044-.012-3.866 3.111-7.01 6.977-7.023 19.669-.065 37.99-10.672 47.812-27.684 15.259-26.43 6.171-60.347-20.259-75.606-6.555-3.785-13.655-6.153-21.102-7.039-3.836-.458-6.58-3.939-6.123-7.779.457-3.838 3.94-6.58 7.779-6.123 9.342 1.112 18.24 4.079 26.447 8.817 33.115 19.119 44.502 61.615 25.383 94.731-12.305 21.313-35.254 34.603-59.891 34.684-1.282.004-2.484-.336-3.518-.934z" fill="#ffc839" data-original="#ffc839" class=""></path></g><g><path d="m475.913 149.027c-1.236-.714-2.266-1.811-2.891-3.216-1.571-3.533.02-7.67 3.552-9.24 13.616-6.054 21.425-13.732 21.425-21.064.001-11.375-20.37-25.935-58.123-30.517-3.839-.465-6.572-3.955-6.106-7.792.466-3.838 3.954-6.571 7.792-6.106 42.132 5.114 70.438 22.963 70.438 44.415-.001 13.307-10.561 25.33-29.737 33.856-2.129.946-4.476.745-6.35-.336z" fill="#ffdd40" data-original="#ffdd40" class=""></path></g><g><path d="m393.784 159.344c-2.324-1.342-3.765-3.965-3.464-6.806.409-3.845 3.857-6.63 7.701-6.221 6.389.679 12.997 1.024 19.638 1.023 22.371.001 43.294-3.825 58.916-10.77 3.533-1.571 7.669.019 9.24 3.552s-.02 7.67-3.552 9.24c-17.375 7.725-40.317 11.978-64.603 11.978-7.134.001-14.239-.37-21.118-1.101-1.005-.106-1.937-.421-2.758-.895z" fill="#ffea89" data-original="#ffea89"></path></g><path d="m.066 250.797c3.044-.566 5.984-1.322 8.797-2.226 18.188-5.841 33.356-18.587 42.836-35.171 13.513-23.639 40.92-71.977 59.862-108.006 11.006-20.935 10.826-41.96 6.954-59.255-69.637 42.062-116.639 117.803-118.449 204.658z" fill="#3c58a0" data-original="#3c58a0" class=""></path></g></g></svg>