<svg id="Layer_1" data-name="Layer 1" xmlns="http://www.w3.org/2000/svg" xmlns:xlink="http://www.w3.org/1999/xlink" viewBox="0 0 234.08 142.79"><defs><style>.cls-1{fill:url(#linear-gradient);}.cls-2{fill:url(#linear-gradient-2);}.cls-3{fill:url(#linear-gradient-3);}</style><linearGradient id="linear-gradient" x1="68.98" y1="44.04" x2="90.98" y2="44.04" gradientUnits="userSpaceOnUse"><stop offset="0" stop-color="#ed1c24"/><stop offset="0.96"/></linearGradient><linearGradient id="linear-gradient-2" x1="517.68" y1="69.44" x2="580.3" y2="-2.53" gradientTransform="matrix(-1, 0, 0, 1, 747.89, 0)" gradientUnits="userSpaceOnUse"><stop offset="0.04"/><stop offset="1" stop-color="#ed1c24"/></linearGradient><linearGradient id="linear-gradient-3" x1="118.18" y1="47.89" x2="225.8" y2="141.17" gradientUnits="userSpaceOnUse"><stop offset="0"/><stop offset="1" stop-color="#ed1c24"/></linearGradient></defs><path d="M47.55,135a.53.53,0,0,1,.16.39.53.53,0,0,1-.16.38.5.5,0,0,1-.38.15h-2.4v7.06a.56.56,0,0,1-.16.41.57.57,0,0,1-.42.17.58.58,0,0,1-.58-.58v-7.06h-2.4a.53.53,0,0,1-.39-.15.52.52,0,0,1-.15-.38.51.51,0,0,1,.54-.54h6A.5.5,0,0,1,47.55,135Z" transform="translate(-7.96 -3.41)"/><path d="M54.4,137.7a2.36,2.36,0,0,1,1,1,3.25,3.25,0,0,1,.35,1.55V143a.58.58,0,0,1-1,.41.56.56,0,0,1-.16-.41v-2.74a1.83,1.83,0,0,0-.48-1.37,1.8,1.8,0,0,0-1.29-.46,1.83,1.83,0,0,0-.85.19,1.62,1.62,0,0,0-.61.51,1.32,1.32,0,0,0-.21.73V143a.6.6,0,0,1-.16.41.57.57,0,0,1-.41.16.6.6,0,0,1-.41-.16A.56.56,0,0,1,50,143v-7.58a.53.53,0,0,1,.16-.41.56.56,0,0,1,.41-.16A.53.53,0,0,1,51,135a.57.57,0,0,1,.16.41v2.73a2.4,2.4,0,0,1,.84-.55,3,3,0,0,1,2.43.14Z" transform="translate(-7.96 -3.41)"/><path d="M64,140.73a.48.48,0,0,1-.36.13H59.44a2,2,0,0,0,.71,1.26,2.19,2.19,0,0,0,1.43.48,2.24,2.24,0,0,0,.7-.12,1.92,1.92,0,0,0,.59-.3.61.61,0,0,1,.37-.12.48.48,0,0,1,.34.11.5.5,0,0,1,.2.38.4.4,0,0,1-.18.33,3,3,0,0,1-.94.49,3.33,3.33,0,0,1-1.08.19,3.42,3.42,0,0,1-1.64-.39,2.91,2.91,0,0,1-1.13-1.1,3.15,3.15,0,0,1-.41-1.6,3.23,3.23,0,0,1,.39-1.59,2.79,2.79,0,0,1,1.07-1.11,3.08,3.08,0,0,1,1.55-.39,2.84,2.84,0,0,1,1.49.37,2.57,2.57,0,0,1,1,1.06,3.44,3.44,0,0,1,.34,1.56A.48.48,0,0,1,64,140.73Zm-4-1.95a2.07,2.07,0,0,0-.64,1.19h3.71a2,2,0,0,0-.55-1.19,1.65,1.65,0,0,0-1.2-.45A1.92,1.92,0,0,0,60.09,138.78Z" transform="translate(-7.96 -3.41)"/><path d="M71.92,143.29a2.41,2.41,0,0,1-1-.95,2.86,2.86,0,0,1-.34-1.39.53.53,0,0,1,.17-.41.57.57,0,0,1,.41-.17.57.57,0,0,1,.42.17.53.53,0,0,1,.16.41,1.65,1.65,0,0,0,.42,1.17,1.43,1.43,0,0,0,1.1.46,1.41,1.41,0,0,0,1.09-.46,1.61,1.61,0,0,0,.43-1.17v-5.56A.57.57,0,0,1,75,135a.56.56,0,0,1,.4-.16.65.65,0,0,1,.43.16.57.57,0,0,1,.16.42V141a2.75,2.75,0,0,1-.34,1.39,2.44,2.44,0,0,1-1,.95,2.72,2.72,0,0,1-1.38.34A2.75,2.75,0,0,1,71.92,143.29Z" transform="translate(-7.96 -3.41)"/><path d="M80.4,143.17a2.84,2.84,0,0,1-1.1-1.1,3.48,3.48,0,0,1,0-3.2,2.84,2.84,0,0,1,1.1-1.1,3.42,3.42,0,0,1,3.17,0,3,3,0,0,1,1.09,1.1,3.48,3.48,0,0,1,0,3.2,2.85,2.85,0,0,1-1.08,1.1,3.23,3.23,0,0,1-1.59.39A3.18,3.18,0,0,1,80.4,143.17Zm2.61-.88a1.85,1.85,0,0,0,.7-.74,2.24,2.24,0,0,0,.25-1.08,2.26,2.26,0,0,0-.25-1.08,1.85,1.85,0,0,0-.7-.74,2.06,2.06,0,0,0-2,0,1.87,1.87,0,0,0-.71.74,2.27,2.27,0,0,0-.26,1.08,2.24,2.24,0,0,0,.26,1.08,1.87,1.87,0,0,0,.71.74,2.06,2.06,0,0,0,2,0Z" transform="translate(-7.96 -3.41)"/><path d="M92.53,137.91a.78.78,0,0,1-.06.27l-3.41,7.67a.46.46,0,0,1-.44.34.67.67,0,0,1-.27-.07.46.46,0,0,1-.33-.43.54.54,0,0,1,.07-.27l1.11-2.5-2.51-4.76a.6.6,0,0,1,0-.24.48.48,0,0,1,.09-.27.62.62,0,0,1,.23-.19.78.78,0,0,1,.22,0,.49.49,0,0,1,.47.31l2,4.06,1.8-4a.46.46,0,0,1,.43-.32.6.6,0,0,1,.27.06A.45.45,0,0,1,92.53,137.91Z" transform="translate(-7.96 -3.41)"/><path d="M100.86,143.06a4,4,0,0,1-1.56-1.59,5,5,0,0,1,0-4.62,4,4,0,0,1,1.56-1.58,4.93,4.93,0,0,1,4.6,0,4.11,4.11,0,0,1,1.57,1.58,5,5,0,0,1,0,4.62,4.07,4.07,0,0,1-1.57,1.59,4.55,4.55,0,0,1-2.29.57A4.63,4.63,0,0,1,100.86,143.06Zm4-.93a3.1,3.1,0,0,0,1.18-1.23,3.74,3.74,0,0,0,0-3.48,3.15,3.15,0,0,0-1.17-1.23,3.54,3.54,0,0,0-3.42,0,3.1,3.1,0,0,0-1.18,1.23,3.81,3.81,0,0,0,0,3.48,3.17,3.17,0,0,0,1.18,1.23,3.28,3.28,0,0,0,1.71.45A3.25,3.25,0,0,0,104.87,142.13Z" transform="translate(-7.96 -3.41)"/><path d="M112,136.25a1.57,1.57,0,0,0-.38,1.09v.3h1.14a.51.51,0,0,1,.37.14.45.45,0,0,1,.15.35.43.43,0,0,1-.15.34.51.51,0,0,1-.37.13h-1.14V143a.53.53,0,0,1-.16.41.56.56,0,0,1-.43.16.53.53,0,0,1-.39-.16.57.57,0,0,1-.16-.41V138.6H110a.55.55,0,0,1-.38-.13.46.46,0,0,1-.14-.34.48.48,0,0,1,.14-.35.56.56,0,0,1,.38-.14h.48v-.19a2.9,2.9,0,0,1,.32-1.38,2.28,2.28,0,0,1,.89-.93,2.58,2.58,0,0,1,1.31-.33.59.59,0,0,1,.41.15.46.46,0,0,1,.16.37.45.45,0,0,1-.16.36.59.59,0,0,1-.41.15A1.3,1.3,0,0,0,112,136.25Z" transform="translate(-7.96 -3.41)"/><path d="M120.28,143.35a.53.53,0,0,1-.17-.41v-7.55a.54.54,0,0,1,.17-.42.58.58,0,0,1,.41-.16h2.66a2.86,2.86,0,0,1,1.33.3,2.26,2.26,0,0,1,.91.82,2.32,2.32,0,0,1,.32,1.2,1.66,1.66,0,0,1-.29,1,2.13,2.13,0,0,1-.81.7,2,2,0,0,1,1.63,2.08,2.61,2.61,0,0,1-.36,1.36,2.48,2.48,0,0,1-1,.93,3.11,3.11,0,0,1-1.48.34h-2.89A.55.55,0,0,1,120.28,143.35Zm3.07-5a1.62,1.62,0,0,0,1.05-.32,1.14,1.14,0,0,0,.4-.94,1.1,1.1,0,0,0-.4-.93,1.62,1.62,0,0,0-1.05-.32h-2.08v2.51Zm.23,4.06a1.85,1.85,0,0,0,1.26-.41,1.43,1.43,0,0,0,.48-1.15,1.24,1.24,0,0,0-.47-1.06,2,2,0,0,0-1.27-.37h-2.31v3Z" transform="translate(-7.96 -3.41)"/><path d="M134.61,137.57a.56.56,0,0,1,.15.41v5a.59.59,0,0,1-.15.41.61.61,0,0,1-.82,0,.56.56,0,0,1-.16-.41v-.12a2.6,2.6,0,0,1-.85.55,2.84,2.84,0,0,1-1.05.19,2.87,2.87,0,0,1-1.38-.33,2.33,2.33,0,0,1-1-1,3.19,3.19,0,0,1-.34-1.54V138a.55.55,0,0,1,.57-.57.54.54,0,0,1,.4.16.54.54,0,0,1,.16.41v2.74a1.76,1.76,0,0,0,.49,1.36,1.78,1.78,0,0,0,1.29.47,2,2,0,0,0,.85-.19,1.59,1.59,0,0,0,.6-.51,1.33,1.33,0,0,0,.22-.73V138a.53.53,0,0,1,.16-.41.61.61,0,0,1,.82,0Z" transform="translate(-7.96 -3.41)"/><path d="M138.05,136.21a.69.69,0,0,1-.22-.52.7.7,0,0,1,.22-.52.74.74,0,0,1,1,0,.7.7,0,0,1,.22.52.69.69,0,0,1-.22.52.71.71,0,0,1-1,0Zm.11,7.15A.56.56,0,0,1,138,143v-5a.53.53,0,0,1,.16-.41.54.54,0,0,1,.4-.16.55.55,0,0,1,.42.16.56.56,0,0,1,.15.41v5a.53.53,0,0,1-.57.57A.58.58,0,0,1,138.16,143.36Z" transform="translate(-7.96 -3.41)"/><path d="M143,143.26a1.77,1.77,0,0,1-.6-.74,2.61,2.61,0,0,1-.21-1.06v-6.09a.56.56,0,1,1,1.12,0v6.09a1.4,1.4,0,0,0,.15.68.48.48,0,0,0,.4.26h.28a.51.51,0,0,1,.37.16.58.58,0,0,1,.13.4.48.48,0,0,1-.21.4.85.85,0,0,1-.54.16h0A1.55,1.55,0,0,1,143,143.26Z" transform="translate(-7.96 -3.41)"/><path d="M152.16,135a.53.53,0,0,1,.16.41v5.08a3.1,3.1,0,0,1-1.51,2.7,3.24,3.24,0,0,1-3.12,0,2.91,2.91,0,0,1-1.11-1.12,3.12,3.12,0,0,1-.4-1.58,3.28,3.28,0,0,1,.37-1.57,2.82,2.82,0,0,1,3.68-1.25,2.78,2.78,0,0,1,1,.75v-3a.53.53,0,0,1,.16-.41.56.56,0,0,1,.41-.16A.53.53,0,0,1,152.16,135Zm-1.9,7.32a2,2,0,0,0,.71-.76,2.23,2.23,0,0,0,.26-1.07,2.19,2.19,0,0,0-.26-1.06,1.9,1.9,0,0,0-.71-.75,2,2,0,0,0-2,0,2,2,0,0,0-.71.75,2.19,2.19,0,0,0-.26,1.06,2.23,2.23,0,0,0,.26,1.07,2.08,2.08,0,0,0,.71.76,2,2,0,0,0,2,0Z" transform="translate(-7.96 -3.41)"/><path d="M155.6,136.21a.73.73,0,0,1-.22-.52.74.74,0,0,1,.22-.52.73.73,0,0,1,1.25.52.72.72,0,0,1-.21.52.72.72,0,0,1-1,0Zm.11,7.15a.56.56,0,0,1-.16-.41v-5a.53.53,0,0,1,.16-.41.56.56,0,0,1,.41-.16.53.53,0,0,1,.41.16.57.57,0,0,1,.16.41v5a.6.6,0,0,1-.16.41.57.57,0,0,1-.41.16A.6.6,0,0,1,155.71,143.36Z" transform="translate(-7.96 -3.41)"/><path d="M164.33,137.7a2.36,2.36,0,0,1,1,1,3.25,3.25,0,0,1,.35,1.55V143a.58.58,0,0,1-1,.41.56.56,0,0,1-.16-.41v-2.74a1.83,1.83,0,0,0-.48-1.37,1.8,1.8,0,0,0-1.29-.46,1.83,1.83,0,0,0-.85.19,1.62,1.62,0,0,0-.61.51,1.32,1.32,0,0,0-.21.73V143a.6.6,0,0,1-.16.41.57.57,0,0,1-.41.16.58.58,0,0,1-.41-.16.56.56,0,0,1-.16-.41v-5a.53.53,0,0,1,.16-.41.54.54,0,0,1,.41-.16.53.53,0,0,1,.41.16.57.57,0,0,1,.16.41v.12a2.4,2.4,0,0,1,.84-.55,2.84,2.84,0,0,1,1-.19A2.87,2.87,0,0,1,164.33,137.7Z" transform="translate(-7.96 -3.41)"/><path d="M173,137.77a3,3,0,0,1,1.09,1.1,3.24,3.24,0,0,1,.39,1.6v2.41a3.36,3.36,0,0,1-.39,1.61,2.91,2.91,0,0,1-1.09,1.14,3.11,3.11,0,0,1-1.6.42,3.57,3.57,0,0,1-1.5-.32,3.22,3.22,0,0,1-1.16-.91.51.51,0,0,1-.12-.31.47.47,0,0,1,.24-.4.52.52,0,0,1,.31-.1.55.55,0,0,1,.45.23,2.11,2.11,0,0,0,.76.6,2.48,2.48,0,0,0,1,.2,1.88,1.88,0,0,0,1-.26,1.77,1.77,0,0,0,.71-.77,2.54,2.54,0,0,0,.27-1.21v-.54a2.55,2.55,0,0,1-.91,1,2.43,2.43,0,0,1-1.28.34,2.82,2.82,0,0,1-1.48-.39,2.68,2.68,0,0,1-1-1.1,3.34,3.34,0,0,1-.37-1.6,3.24,3.24,0,0,1,.39-1.6,2.84,2.84,0,0,1,1.1-1.1,3.42,3.42,0,0,1,3.17,0Zm-.56,4.52a1.85,1.85,0,0,0,.7-.74,2.24,2.24,0,0,0,.25-1.08,2.26,2.26,0,0,0-.25-1.08,1.85,1.85,0,0,0-.7-.74,2.06,2.06,0,0,0-2,0,1.87,1.87,0,0,0-.71.74,2.26,2.26,0,0,0-.25,1.08,2.24,2.24,0,0,0,.25,1.08,1.87,1.87,0,0,0,.71.74,2.06,2.06,0,0,0,2,0Z" transform="translate(-7.96 -3.41)"/><path d="M181.93,143.35a.57.57,0,0,1-.17-.41v-7.55a.57.57,0,0,1,.17-.42.6.6,0,0,1,.41-.16H185a2.79,2.79,0,0,1,1.32.3,2.19,2.19,0,0,1,.91.82,2.23,2.23,0,0,1,.33,1.2,1.74,1.74,0,0,1-.29,1,2.13,2.13,0,0,1-.81.7,2.11,2.11,0,0,1,1.19.72,2.08,2.08,0,0,1,.44,1.36,2.62,2.62,0,0,1-.37,1.36,2.46,2.46,0,0,1-1,.93,3.13,3.13,0,0,1-1.48.34h-2.9A.57.57,0,0,1,181.93,143.35Zm3.08-5a1.62,1.62,0,0,0,1.05-.32,1.14,1.14,0,0,0,.4-.94,1.1,1.1,0,0,0-.4-.93,1.62,1.62,0,0,0-1.05-.32h-2.09v2.51Zm.23,4.06a1.89,1.89,0,0,0,1.26-.41,1.43,1.43,0,0,0,.48-1.15,1.27,1.27,0,0,0-.47-1.06,2,2,0,0,0-1.27-.37h-2.32v3Z" transform="translate(-7.96 -3.41)"/><path d="M196.15,140.73a.5.5,0,0,1-.36.13h-4.24a2,2,0,0,0,.71,1.26,2.19,2.19,0,0,0,1.43.48,2.24,2.24,0,0,0,.7-.12,1.92,1.92,0,0,0,.59-.3.61.61,0,0,1,.37-.12.48.48,0,0,1,.34.11.5.5,0,0,1,.2.38.4.4,0,0,1-.18.33,3,3,0,0,1-.94.49,3.33,3.33,0,0,1-1.08.19,3.42,3.42,0,0,1-1.64-.39,2.91,2.91,0,0,1-1.13-1.1,3.15,3.15,0,0,1-.41-1.6,3.23,3.23,0,0,1,.39-1.59,2.79,2.79,0,0,1,1.07-1.11,3.08,3.08,0,0,1,1.55-.39,2.84,2.84,0,0,1,1.49.37,2.57,2.57,0,0,1,1,1.06,3.44,3.44,0,0,1,.34,1.56A.48.48,0,0,1,196.15,140.73Zm-4-1.95a2,2,0,0,0-.64,1.19h3.71a2,2,0,0,0-.55-1.19,1.65,1.65,0,0,0-1.2-.45A1.92,1.92,0,0,0,192.2,138.78Z" transform="translate(-7.96 -3.41)"/><path d="M199.65,143.33a2.69,2.69,0,0,1-1-.62.45.45,0,0,1-.15-.34.56.56,0,0,1,.22-.44.74.74,0,0,1,.39-.15.63.63,0,0,1,.43.2,1.72,1.72,0,0,0,.63.41,2.53,2.53,0,0,0,.91.17,1.9,1.9,0,0,0,1-.21.63.63,0,0,0,.35-.57.69.69,0,0,0-.34-.58,3.37,3.37,0,0,0-1.17-.38c-1.43-.28-2.14-.86-2.14-1.76a1.44,1.44,0,0,1,.32-.93,2,2,0,0,1,.85-.56,3.16,3.16,0,0,1,1.11-.19,3.31,3.31,0,0,1,1.3.23,2.22,2.22,0,0,1,.91.65.52.52,0,0,1,.14.35.47.47,0,0,1-.18.35.55.55,0,0,1-.32.09.77.77,0,0,1-.52-.21,1.71,1.71,0,0,0-.59-.37,2.41,2.41,0,0,0-.76-.1,1.87,1.87,0,0,0-.84.17.54.54,0,0,0-.33.49.65.65,0,0,0,.11.37,1.13,1.13,0,0,0,.42.28,5.78,5.78,0,0,0,.91.25,3.84,3.84,0,0,1,1.72.68,1.4,1.4,0,0,1,.51,1.12,1.7,1.7,0,0,1-.28.94,1.93,1.93,0,0,1-.82.65,3.18,3.18,0,0,1-1.3.24A4.51,4.51,0,0,1,199.65,143.33Z" transform="translate(-7.96 -3.41)"/><path d="M209,142.56a.58.58,0,0,1,.13.4.5.5,0,0,1-.18.4.67.67,0,0,1-.47.16h-.2a1.83,1.83,0,0,1-1-.29,2,2,0,0,1-.71-.77,2.37,2.37,0,0,1-.25-1.1V138.6h-.52a.55.55,0,0,1-.38-.13.46.46,0,0,1-.14-.34.48.48,0,0,1,.14-.35.56.56,0,0,1,.38-.14h.52V136a.55.55,0,0,1,.15-.4.52.52,0,0,1,.4-.16.51.51,0,0,1,.4.16.52.52,0,0,1,.16.4v1.6h.95a.56.56,0,0,1,.38.14.48.48,0,0,1,.14.35.46.46,0,0,1-.14.34.55.55,0,0,1-.38.13h-.95v2.76a1.15,1.15,0,0,0,.24.74.77.77,0,0,0,.61.3h.37A.48.48,0,0,1,209,142.56Z" transform="translate(-7.96 -3.41)"/><path d="M97.5,107.79,59.09,41.26a.75.75,0,0,1-.07-.12l-.13-.2-.18-.29-.08-.11-.25-.36,0,0a10.93,10.93,0,0,0-4-3.31l-.18-.08-.28-.13-.33-.13a.76.76,0,0,0-.16-.06L53,36.32l-.13,0-.36-.1-.15-.05L52.05,36l-.21,0-.26,0-.29-.06-.18,0-.39,0h-.11l-.47,0h-.58c-.37,0-.75,0-1.12.05h0l-.52.07h0l-.45.08-.12,0-.38.09-.17,0-.31.09-.24.07-.24.08-.3.11-.18.07-.35.15-.13.06-.38.18L44.5,37a2.82,2.82,0,0,0-.38.21l-.06,0h0l-.05,0-.35.21-.14.09-.28.2-.2.13-.19.15-.26.2-.11.1-.31.27,0,0a11.25,11.25,0,0,0-1.39,1.54h0c-.1.13-.2.27-.29.41a2.14,2.14,0,0,0-.13.19l-.15.24a11,11,0,0,0-1.53,4.39s0,.05,0,.08l0,.38a1.37,1.37,0,0,0,0,.19c0,.1,0,.21,0,.31a2.44,2.44,0,0,0,0,.27v66.59a11,11,0,0,0,11,11h0a11,11,0,0,0,11-11V87.81l17.89,31a11,11,0,0,0,15,4h0A11,11,0,0,0,97.5,107.79Z" transform="translate(-7.96 -3.41)"/><rect class="cls-1" x="68.98" y="33.04" width="22" height="22" rx="11"/><rect y="32.35" width="22" height="88.53" rx="11"/><path class="cls-2" d="M224.45,22.82a63.17,63.17,0,0,1,8.3,76.71,32.23,32.23,0,0,0-6.88-35.31,31.25,31.25,0,0,0-4-3.4A63.3,63.3,0,0,0,224.45,22.82ZM222.63,21a63.18,63.18,0,0,0-76.72-8.3,32.24,32.24,0,0,1,35.32,6.88,31.86,31.86,0,0,1,3.4,4A63.37,63.37,0,0,1,222.63,21Z" transform="translate(-7.96 -3.41)"/><path class="cls-3" d="M107.57,41.77V36.08H114A17.47,17.47,0,0,0,107.57,41.77Zm27.32-5.69h-4.84a17.49,17.49,0,0,1,9.49,15.56h0a17.5,17.5,0,0,1-1.32,6.69A21.95,21.95,0,0,1,134.89,102h-5.32V67.45A17.45,17.45,0,0,1,122,69.16h0a17.51,17.51,0,0,1-14.46-7.64V124h27.32a43.95,43.95,0,1,0,0-87.89Zm74.59,77.21V46.76a11,11,0,0,0-11-11h0a11,11,0,0,0-11,11v66.53a11,11,0,0,0,11,11h0A11,11,0,0,0,209.48,113.29Z" transform="translate(-7.96 -3.41)"/></svg>