<?xml version="1.0" encoding="utf-8"?>
<!-- Generator: Adobe Illustrator 25.1.0, SVG Export Plug-In . SVG Version: 6.00 Build 0)  -->
<svg version="1.1" id="Layer_1" xmlns="http://www.w3.org/2000/svg" xmlns:xlink="http://www.w3.org/1999/xlink" x="0px" y="0px"
	 viewBox="0 0 250 150" style="enable-background:new 0 0 250 150;" xml:space="preserve">
<style type="text/css">
	.st0{clip-path:url(#SVGID_2_);}
	.st1{fill:#FFFFFF;}
	.st2{fill:#231F20;stroke:#FFFFFF;stroke-width:0.5;stroke-miterlimit:10;}
	.st3{fill:url(#SVGID_3_);stroke:#FFFFFF;stroke-width:0.5;stroke-miterlimit:10;}
	.st4{fill:url(#SVGID_4_);stroke:#FFFFFF;stroke-width:0.5;stroke-miterlimit:10;}
	.st5{fill:url(#SVGID_5_);stroke:#FFFFFF;stroke-width:0.5;stroke-miterlimit:10;}
</style>
<g>
	<defs>
		<rect id="SVGID_1_" width="250" height="150"/>
	</defs>
	<clipPath id="SVGID_2_">
		<use xlink:href="#SVGID_1_"  style="overflow:visible;"/>
	</clipPath>
	<g class="st0">
		<g>
			<path class="st1" d="M46,135.2c0.1,0.1,0.2,0.2,0.2,0.4c0,0.2-0.1,0.3-0.2,0.4c-0.1,0.1-0.2,0.2-0.4,0.2h-2.4v7.1
				c0,0.2-0.1,0.3-0.2,0.4s-0.2,0.2-0.4,0.2c-0.2,0-0.3-0.1-0.4-0.2s-0.2-0.2-0.2-0.4v-7.1h-2.4c-0.2,0-0.3,0-0.4-0.2
				c-0.1-0.1-0.2-0.2-0.2-0.4c0-0.2,0.1-0.3,0.2-0.4c0.1-0.1,0.2-0.2,0.4-0.2h6C45.8,135,45.9,135.1,46,135.2z"/>
			<path class="st1" d="M52.9,137.9c0.4,0.2,0.7,0.5,1,1c0.2,0.4,0.3,0.9,0.3,1.5v2.7c0,0.2-0.1,0.3-0.2,0.4
				c-0.1,0.1-0.2,0.2-0.4,0.2s-0.3-0.1-0.4-0.2c-0.1-0.1-0.2-0.2-0.2-0.4v-2.7c0-0.6-0.2-1.1-0.5-1.4s-0.8-0.5-1.3-0.5
				c-0.3,0-0.6,0.1-0.9,0.2c-0.3,0.1-0.5,0.3-0.6,0.5c-0.1,0.2-0.2,0.5-0.2,0.7v3.1c0,0.2-0.1,0.3-0.2,0.4c-0.1,0.1-0.2,0.2-0.4,0.2
				c-0.2,0-0.3-0.1-0.4-0.2c-0.1-0.1-0.2-0.2-0.2-0.4v-7.6c0-0.2,0.1-0.3,0.2-0.4c0.1-0.1,0.2-0.2,0.4-0.2c0.2,0,0.3,0.1,0.4,0.2
				c0.1,0.1,0.2,0.2,0.2,0.4v2.7c0.2-0.2,0.5-0.4,0.8-0.6c0.3-0.1,0.7-0.2,1-0.2C52,137.6,52.5,137.7,52.9,137.9z"/>
			<path class="st1" d="M62.5,140.9c-0.1,0.1-0.2,0.1-0.4,0.1h-4.2c0.1,0.5,0.3,0.9,0.7,1.3s0.9,0.5,1.4,0.5c0.2,0,0.5,0,0.7-0.1
				c0.2-0.1,0.4-0.2,0.6-0.3c0.1-0.1,0.2-0.1,0.4-0.1s0.3,0,0.3,0.1c0.1,0.1,0.2,0.2,0.2,0.4c0,0.1-0.1,0.2-0.2,0.3
				c-0.3,0.2-0.6,0.4-0.9,0.5c-0.4,0.1-0.7,0.2-1.1,0.2c-0.6,0-1.2-0.1-1.6-0.4s-0.9-0.6-1.1-1.1c-0.3-0.5-0.4-1-0.4-1.6
				c0-0.6,0.1-1.1,0.4-1.6s0.6-0.8,1.1-1.1s1-0.4,1.6-0.4c0.6,0,1.1,0.1,1.5,0.4c0.4,0.3,0.7,0.6,1,1.1c0.2,0.5,0.3,1,0.3,1.6
				C62.7,140.7,62.6,140.8,62.5,140.9z M58.6,139c-0.3,0.3-0.6,0.7-0.6,1.2h3.7c-0.1-0.5-0.3-0.9-0.6-1.2c-0.3-0.3-0.7-0.4-1.2-0.4
				C59.3,138.5,58.9,138.7,58.6,139z"/>
			<path class="st1" d="M70.4,143.5c-0.4-0.2-0.7-0.5-0.9-0.9c-0.2-0.4-0.3-0.9-0.3-1.4c0-0.2,0.1-0.3,0.2-0.4
				c0.1-0.1,0.2-0.2,0.4-0.2c0.2,0,0.3,0.1,0.4,0.2c0.1,0.1,0.2,0.2,0.2,0.4c0,0.5,0.1,0.9,0.4,1.2c0.3,0.3,0.6,0.5,1.1,0.5
				s0.8-0.2,1.1-0.5s0.4-0.7,0.4-1.2v-5.6c0-0.2,0.1-0.3,0.2-0.4c0.1-0.1,0.2-0.2,0.4-0.2c0.2,0,0.3,0.1,0.4,0.2
				c0.1,0.1,0.2,0.2,0.2,0.4v5.6c0,0.5-0.1,1-0.3,1.4c-0.2,0.4-0.5,0.7-1,0.9c-0.4,0.2-0.9,0.3-1.4,0.3
				C71.3,143.8,70.8,143.7,70.4,143.5z"/>
			<path class="st1" d="M78.9,143.4c-0.5-0.3-0.8-0.6-1.1-1.1c-0.3-0.5-0.4-1-0.4-1.6c0-0.6,0.1-1.1,0.4-1.6s0.6-0.8,1.1-1.1
				s1-0.4,1.6-0.4c0.6,0,1.1,0.1,1.6,0.4s0.8,0.6,1.1,1.1s0.4,1,0.4,1.6c0,0.6-0.1,1.1-0.4,1.6c-0.3,0.5-0.6,0.8-1.1,1.1
				s-1,0.4-1.6,0.4C79.9,143.8,79.3,143.6,78.9,143.4z M81.5,142.5c0.3-0.2,0.5-0.4,0.7-0.7c0.2-0.3,0.3-0.7,0.3-1.1
				c0-0.4-0.1-0.8-0.3-1.1c-0.2-0.3-0.4-0.6-0.7-0.7c-0.3-0.2-0.6-0.3-1-0.3s-0.7,0.1-1,0.3c-0.3,0.2-0.5,0.4-0.7,0.7
				c-0.2,0.3-0.3,0.7-0.3,1.1c0,0.4,0.1,0.8,0.3,1.1c0.2,0.3,0.4,0.6,0.7,0.7c0.3,0.2,0.6,0.3,1,0.3S81.2,142.7,81.5,142.5z"/>
			<path class="st1" d="M91,138.1c0,0.1,0,0.2-0.1,0.3l-3.4,7.7c-0.1,0.2-0.2,0.3-0.4,0.3c-0.1,0-0.2,0-0.3-0.1
				c-0.2-0.1-0.3-0.2-0.3-0.4c0-0.1,0-0.2,0.1-0.3l1.1-2.5l-2.5-4.8c0-0.1-0.1-0.1-0.1-0.2c0-0.1,0-0.2,0.1-0.3s0.1-0.1,0.2-0.2
				c0.1,0,0.1,0,0.2,0c0.2,0,0.4,0.1,0.5,0.3l2,4.1l1.8-4c0.1-0.2,0.2-0.3,0.4-0.3c0.1,0,0.2,0,0.3,0.1
				C90.9,137.8,91,137.9,91,138.1z"/>
			<path class="st1" d="M99.3,143.3c-0.7-0.4-1.2-0.9-1.6-1.6s-0.6-1.5-0.6-2.3c0-0.9,0.2-1.6,0.6-2.3c0.4-0.7,0.9-1.2,1.6-1.6
				s1.4-0.6,2.3-0.6c0.9,0,1.6,0.2,2.3,0.6c0.7,0.4,1.2,0.9,1.6,1.6c0.4,0.7,0.6,1.4,0.6,2.3c0,0.9-0.2,1.6-0.6,2.3
				c-0.4,0.7-0.9,1.2-1.6,1.6c-0.7,0.4-1.4,0.6-2.3,0.6S100,143.6,99.3,143.3z M103.3,142.3c0.5-0.3,0.9-0.7,1.2-1.2
				c0.3-0.5,0.4-1.1,0.4-1.7c0-0.6-0.1-1.2-0.4-1.7c-0.3-0.5-0.7-0.9-1.2-1.2c-0.5-0.3-1.1-0.4-1.7-0.4s-1.2,0.1-1.7,0.4
				c-0.5,0.3-0.9,0.7-1.2,1.2c-0.3,0.5-0.4,1.1-0.4,1.7c0,0.6,0.1,1.2,0.4,1.7c0.3,0.5,0.7,0.9,1.2,1.2c0.5,0.3,1.1,0.5,1.7,0.5
				C102.3,142.8,102.8,142.6,103.3,142.3z"/>
			<path class="st1" d="M110.5,136.5c-0.3,0.3-0.4,0.6-0.4,1.1v0.3h1.1c0.2,0,0.3,0,0.4,0.1c0.1,0.1,0.1,0.2,0.1,0.4
				c0,0.1,0,0.2-0.1,0.3s-0.2,0.1-0.4,0.1h-1.1v4.3c0,0.2-0.1,0.3-0.2,0.4c-0.1,0.1-0.2,0.2-0.4,0.2c-0.1,0-0.3-0.1-0.4-0.2
				c-0.1-0.1-0.2-0.2-0.2-0.4v-4.3h-0.5c-0.2,0-0.3,0-0.4-0.1s-0.1-0.2-0.1-0.3c0-0.1,0-0.3,0.1-0.4c0.1-0.1,0.2-0.1,0.4-0.1h0.5
				v-0.2c0-0.5,0.1-1,0.3-1.4c0.2-0.4,0.5-0.7,0.9-0.9c0.4-0.2,0.8-0.3,1.3-0.3c0.2,0,0.3,0,0.4,0.1c0.1,0.1,0.2,0.2,0.2,0.4
				c0,0.1-0.1,0.3-0.2,0.4c-0.1,0.1-0.2,0.1-0.4,0.1C111.1,136,110.8,136.2,110.5,136.5z"/>
			<path class="st1" d="M118.8,143.6c-0.1-0.1-0.2-0.2-0.2-0.4v-7.5c0-0.2,0.1-0.3,0.2-0.4c0.1-0.1,0.2-0.2,0.4-0.2h2.7
				c0.5,0,0.9,0.1,1.3,0.3c0.4,0.2,0.7,0.5,0.9,0.8c0.2,0.4,0.3,0.8,0.3,1.2c0,0.4-0.1,0.7-0.3,1s-0.5,0.5-0.8,0.7
				c0.5,0.1,0.9,0.4,1.2,0.7c0.3,0.4,0.4,0.8,0.4,1.4c0,0.5-0.1,1-0.4,1.4c-0.2,0.4-0.6,0.7-1,0.9c-0.4,0.2-0.9,0.3-1.5,0.3h-2.9
				C119,143.7,118.9,143.7,118.8,143.6z M121.8,138.6c0.4,0,0.8-0.1,1.1-0.3c0.3-0.2,0.4-0.5,0.4-0.9c0-0.4-0.1-0.7-0.4-0.9
				c-0.3-0.2-0.6-0.3-1.1-0.3h-2.1v2.5H121.8z M122.1,142.6c0.5,0,0.9-0.1,1.3-0.4c0.3-0.3,0.5-0.7,0.5-1.2c0-0.5-0.2-0.8-0.5-1.1
				c-0.3-0.2-0.7-0.4-1.3-0.4h-2.3v3H122.1z"/>
			<path class="st1" d="M133.1,137.8c0.1,0.1,0.2,0.2,0.2,0.4v5c0,0.2-0.1,0.3-0.2,0.4c-0.1,0.1-0.2,0.2-0.4,0.2
				c-0.2,0-0.3-0.1-0.4-0.2s-0.2-0.2-0.2-0.4V143c-0.2,0.2-0.5,0.4-0.8,0.6s-0.7,0.2-1,0.2c-0.5,0-1-0.1-1.4-0.3
				c-0.4-0.2-0.7-0.5-1-1c-0.2-0.4-0.3-0.9-0.3-1.5v-2.7c0-0.2,0.1-0.3,0.2-0.4c0.1-0.1,0.2-0.2,0.4-0.2c0.2,0,0.3,0.1,0.4,0.2
				c0.1,0.1,0.2,0.2,0.2,0.4v2.7c0,0.6,0.2,1.1,0.5,1.4c0.3,0.3,0.8,0.5,1.3,0.5c0.3,0,0.6-0.1,0.9-0.2c0.3-0.1,0.5-0.3,0.6-0.5
				c0.1-0.2,0.2-0.5,0.2-0.7v-3.1c0-0.2,0.1-0.3,0.2-0.4c0.1-0.1,0.2-0.2,0.4-0.2C132.8,137.6,133,137.7,133.1,137.8z"/>
			<path class="st1" d="M136.5,136.4c-0.1-0.1-0.2-0.3-0.2-0.5c0-0.2,0.1-0.4,0.2-0.5c0.1-0.1,0.3-0.2,0.5-0.2
				c0.2,0,0.4,0.1,0.5,0.2c0.1,0.1,0.2,0.3,0.2,0.5c0,0.2-0.1,0.4-0.2,0.5c-0.1,0.1-0.3,0.2-0.5,0.2
				C136.8,136.6,136.7,136.6,136.5,136.4z M136.6,143.6c-0.1-0.1-0.2-0.2-0.2-0.4v-5c0-0.2,0.1-0.3,0.2-0.4c0.1-0.1,0.2-0.2,0.4-0.2
				c0.2,0,0.3,0.1,0.4,0.2c0.1,0.1,0.2,0.2,0.2,0.4v5c0,0.2-0.1,0.3-0.2,0.4c-0.1,0.1-0.2,0.2-0.4,0.2
				C136.9,143.7,136.7,143.7,136.6,143.6z"/>
			<path class="st1" d="M141.4,143.5c-0.3-0.2-0.5-0.4-0.6-0.7c-0.1-0.3-0.2-0.7-0.2-1.1v-6.1c0-0.2,0.1-0.3,0.2-0.4
				c0.1-0.1,0.2-0.2,0.4-0.2c0.2,0,0.3,0.1,0.4,0.2c0.1,0.1,0.2,0.2,0.2,0.4v6.1c0,0.3,0.1,0.5,0.2,0.7s0.2,0.3,0.4,0.3h0.3
				c0.1,0,0.3,0.1,0.4,0.2c0.1,0.1,0.1,0.2,0.1,0.4c0,0.2-0.1,0.3-0.2,0.4c-0.1,0.1-0.3,0.2-0.5,0.2h0
				C142,143.7,141.7,143.6,141.4,143.5z"/>
			<path class="st1" d="M150.6,135.2c0.1,0.1,0.2,0.2,0.2,0.4v5.1c0,0.6-0.1,1.1-0.4,1.6c-0.3,0.5-0.6,0.8-1.1,1.1
				c-0.5,0.3-1,0.4-1.6,0.4s-1.1-0.1-1.6-0.4c-0.5-0.3-0.8-0.6-1.1-1.1c-0.3-0.5-0.4-1-0.4-1.6s0.1-1.1,0.4-1.6s0.6-0.8,1-1.1
				s0.9-0.4,1.5-0.4c0.4,0,0.8,0.1,1.2,0.3c0.4,0.2,0.7,0.4,0.9,0.7v-3c0-0.2,0.1-0.3,0.2-0.4c0.1-0.1,0.2-0.2,0.4-0.2
				C150.4,135,150.5,135.1,150.6,135.2z M148.7,142.5c0.3-0.2,0.5-0.4,0.7-0.8s0.3-0.7,0.3-1.1s-0.1-0.7-0.3-1.1
				c-0.2-0.3-0.4-0.6-0.7-0.7c-0.3-0.2-0.6-0.3-1-0.3c-0.4,0-0.7,0.1-1,0.3c-0.3,0.2-0.5,0.4-0.7,0.7c-0.2,0.3-0.3,0.7-0.3,1.1
				s0.1,0.8,0.3,1.1s0.4,0.6,0.7,0.8c0.3,0.2,0.6,0.3,1,0.3C148.1,142.8,148.4,142.7,148.7,142.5z"/>
			<path class="st1" d="M154.1,136.4c-0.1-0.1-0.2-0.3-0.2-0.5c0-0.2,0.1-0.4,0.2-0.5c0.1-0.1,0.3-0.2,0.5-0.2
				c0.2,0,0.4,0.1,0.5,0.2c0.1,0.1,0.2,0.3,0.2,0.5c0,0.2-0.1,0.4-0.2,0.5c-0.1,0.1-0.3,0.2-0.5,0.2
				C154.4,136.6,154.2,136.6,154.1,136.4z M154.2,143.6c-0.1-0.1-0.2-0.2-0.2-0.4v-5c0-0.2,0.1-0.3,0.2-0.4c0.1-0.1,0.2-0.2,0.4-0.2
				c0.2,0,0.3,0.1,0.4,0.2c0.1,0.1,0.2,0.2,0.2,0.4v5c0,0.2-0.1,0.3-0.2,0.4c-0.1,0.1-0.2,0.2-0.4,0.2
				C154.4,143.7,154.3,143.7,154.2,143.6z"/>
			<path class="st1" d="M162.8,137.9c0.4,0.2,0.7,0.5,1,1c0.2,0.4,0.3,0.9,0.3,1.5v2.7c0,0.2-0.1,0.3-0.2,0.4
				c-0.1,0.1-0.2,0.2-0.4,0.2s-0.3-0.1-0.4-0.2c-0.1-0.1-0.2-0.2-0.2-0.4v-2.7c0-0.6-0.2-1.1-0.5-1.4s-0.8-0.5-1.3-0.5
				c-0.3,0-0.6,0.1-0.9,0.2c-0.3,0.1-0.5,0.3-0.6,0.5c-0.1,0.2-0.2,0.5-0.2,0.7v3.1c0,0.2-0.1,0.3-0.2,0.4c-0.1,0.1-0.2,0.2-0.4,0.2
				c-0.2,0-0.3-0.1-0.4-0.2c-0.1-0.1-0.2-0.2-0.2-0.4v-5c0-0.2,0.1-0.3,0.2-0.4c0.1-0.1,0.2-0.2,0.4-0.2c0.2,0,0.3,0.1,0.4,0.2
				c0.1,0.1,0.2,0.2,0.2,0.4v0.1c0.2-0.2,0.5-0.4,0.8-0.6c0.3-0.1,0.7-0.2,1-0.2C161.9,137.6,162.4,137.7,162.8,137.9z"/>
			<path class="st1" d="M171.5,138c0.5,0.3,0.8,0.6,1.1,1.1s0.4,1,0.4,1.6v2.4c0,0.6-0.1,1.1-0.4,1.6c-0.3,0.5-0.6,0.9-1.1,1.1
				c-0.5,0.3-1,0.4-1.6,0.4c-0.5,0-1-0.1-1.5-0.3c-0.5-0.2-0.8-0.5-1.2-0.9c-0.1-0.1-0.1-0.2-0.1-0.3c0-0.2,0.1-0.3,0.2-0.4
				c0.1-0.1,0.2-0.1,0.3-0.1c0.2,0,0.3,0.1,0.5,0.2c0.2,0.3,0.5,0.5,0.8,0.6c0.3,0.1,0.7,0.2,1,0.2c0.4,0,0.7-0.1,1-0.3
				c0.3-0.2,0.5-0.4,0.7-0.8s0.3-0.7,0.3-1.2v-0.5c-0.2,0.4-0.5,0.7-0.9,1s-0.8,0.3-1.3,0.3c-0.5,0-1-0.1-1.5-0.4s-0.8-0.6-1-1.1
				c-0.2-0.5-0.4-1-0.4-1.6c0-0.6,0.1-1.1,0.4-1.6s0.6-0.8,1.1-1.1c0.5-0.3,1-0.4,1.6-0.4C170.5,137.6,171,137.7,171.5,138z
				 M170.9,142.5c0.3-0.2,0.5-0.4,0.7-0.7c0.2-0.3,0.3-0.7,0.3-1.1c0-0.4-0.1-0.8-0.3-1.1c-0.2-0.3-0.4-0.6-0.7-0.7
				c-0.3-0.2-0.6-0.3-1-0.3s-0.7,0.1-1,0.3c-0.3,0.2-0.5,0.4-0.7,0.7c-0.2,0.3-0.3,0.7-0.3,1.1c0,0.4,0.1,0.8,0.3,1.1
				c0.2,0.3,0.4,0.6,0.7,0.7c0.3,0.2,0.6,0.3,1,0.3S170.6,142.7,170.9,142.5z"/>
			<path class="st1" d="M180.4,143.6c-0.1-0.1-0.2-0.2-0.2-0.4v-7.5c0-0.2,0.1-0.3,0.2-0.4c0.1-0.1,0.2-0.2,0.4-0.2h2.7
				c0.5,0,0.9,0.1,1.3,0.3c0.4,0.2,0.7,0.5,0.9,0.8c0.2,0.4,0.3,0.8,0.3,1.2c0,0.4-0.1,0.7-0.3,1c-0.2,0.3-0.5,0.5-0.8,0.7
				c0.5,0.1,0.9,0.4,1.2,0.7c0.3,0.4,0.4,0.8,0.4,1.4c0,0.5-0.1,1-0.4,1.4s-0.6,0.7-1,0.9c-0.4,0.2-0.9,0.3-1.5,0.3h-2.9
				C180.7,143.7,180.5,143.7,180.4,143.6z M183.5,138.6c0.4,0,0.8-0.1,1.1-0.3c0.3-0.2,0.4-0.5,0.4-0.9c0-0.4-0.1-0.7-0.4-0.9
				c-0.3-0.2-0.6-0.3-1.1-0.3h-2.1v2.5H183.5z M183.7,142.6c0.5,0,0.9-0.1,1.3-0.4s0.5-0.7,0.5-1.2c0-0.5-0.2-0.8-0.5-1.1
				c-0.3-0.2-0.7-0.4-1.3-0.4h-2.3v3H183.7z"/>
			<path class="st1" d="M194.6,140.9c-0.1,0.1-0.2,0.1-0.4,0.1H190c0.1,0.5,0.3,0.9,0.7,1.3c0.4,0.3,0.9,0.5,1.4,0.5
				c0.2,0,0.5,0,0.7-0.1c0.2-0.1,0.4-0.2,0.6-0.3c0.1-0.1,0.2-0.1,0.4-0.1c0.1,0,0.3,0,0.3,0.1c0.1,0.1,0.2,0.2,0.2,0.4
				c0,0.1-0.1,0.2-0.2,0.3c-0.3,0.2-0.6,0.4-0.9,0.5c-0.4,0.1-0.7,0.2-1.1,0.2c-0.6,0-1.2-0.1-1.6-0.4c-0.5-0.3-0.9-0.6-1.1-1.1
				c-0.3-0.5-0.4-1-0.4-1.6c0-0.6,0.1-1.1,0.4-1.6c0.3-0.5,0.6-0.8,1.1-1.1s1-0.4,1.6-0.4c0.6,0,1.1,0.1,1.5,0.4
				c0.4,0.3,0.7,0.6,1,1.1c0.2,0.5,0.3,1,0.3,1.6C194.8,140.7,194.7,140.8,194.6,140.9z M190.7,139c-0.3,0.3-0.6,0.7-0.6,1.2h3.7
				c-0.1-0.5-0.3-0.9-0.6-1.2c-0.3-0.3-0.7-0.4-1.2-0.4C191.5,138.5,191,138.7,190.7,139z"/>
			<path class="st1" d="M198.1,143.5c-0.4-0.2-0.8-0.4-1-0.6c-0.1-0.1-0.1-0.2-0.1-0.3c0-0.2,0.1-0.3,0.2-0.4
				c0.1-0.1,0.3-0.2,0.4-0.2c0.1,0,0.3,0.1,0.4,0.2c0.1,0.2,0.4,0.3,0.6,0.4s0.6,0.2,0.9,0.2c0.4,0,0.8-0.1,1-0.2
				c0.2-0.1,0.4-0.3,0.4-0.6c0-0.2-0.1-0.4-0.3-0.6c-0.2-0.2-0.6-0.3-1.2-0.4c-1.4-0.3-2.1-0.9-2.1-1.8c0-0.4,0.1-0.7,0.3-0.9
				c0.2-0.3,0.5-0.4,0.8-0.6c0.3-0.1,0.7-0.2,1.1-0.2c0.5,0,0.9,0.1,1.3,0.2s0.7,0.4,0.9,0.6c0.1,0.1,0.1,0.2,0.1,0.4
				c0,0.1-0.1,0.2-0.2,0.3c-0.1,0.1-0.2,0.1-0.3,0.1c-0.2,0-0.4-0.1-0.5-0.2c-0.2-0.2-0.4-0.3-0.6-0.4s-0.5-0.1-0.8-0.1
				c-0.3,0-0.6,0.1-0.8,0.2c-0.2,0.1-0.3,0.3-0.3,0.5c0,0.1,0,0.3,0.1,0.4s0.2,0.2,0.4,0.3c0.2,0.1,0.5,0.2,0.9,0.3
				c0.8,0.2,1.4,0.4,1.7,0.7c0.3,0.3,0.5,0.7,0.5,1.1c0,0.3-0.1,0.7-0.3,0.9s-0.5,0.5-0.8,0.7c-0.4,0.2-0.8,0.2-1.3,0.2
				C199.1,143.8,198.6,143.7,198.1,143.5z"/>
			<path class="st1" d="M207.4,142.8c0.1,0.1,0.1,0.2,0.1,0.4c0,0.2-0.1,0.3-0.2,0.4c-0.1,0.1-0.3,0.2-0.5,0.2h-0.2
				c-0.4,0-0.7-0.1-1-0.3s-0.5-0.4-0.7-0.8s-0.3-0.7-0.3-1.1v-2.8h-0.5c-0.2,0-0.3,0-0.4-0.1c-0.1-0.1-0.1-0.2-0.1-0.3
				c0-0.1,0-0.3,0.1-0.4c0.1-0.1,0.2-0.1,0.4-0.1h0.5v-1.6c0-0.2,0.1-0.3,0.2-0.4c0.1-0.1,0.2-0.2,0.4-0.2c0.2,0,0.3,0.1,0.4,0.2
				c0.1,0.1,0.2,0.2,0.2,0.4v1.6h0.9c0.2,0,0.3,0,0.4,0.1c0.1,0.1,0.1,0.2,0.1,0.4c0,0.1,0,0.2-0.1,0.3s-0.2,0.1-0.4,0.1h-0.9v2.8
				c0,0.3,0.1,0.5,0.2,0.7c0.2,0.2,0.4,0.3,0.6,0.3h0.4C207.2,142.6,207.3,142.7,207.4,142.8z"/>
		</g>
		<path class="st2" d="M97.5,108L59.1,41.5c0,0,0-0.1-0.1-0.1c0-0.1-0.1-0.1-0.1-0.2c-0.1-0.1-0.1-0.2-0.2-0.3c0,0-0.1-0.1-0.1-0.1
			c-0.1-0.1-0.2-0.2-0.3-0.4c0,0,0,0,0,0c-1.1-1.4-2.5-2.6-4-3.3c-0.1,0-0.1-0.1-0.2-0.1c-0.1,0-0.2-0.1-0.3-0.1
			c-0.1,0-0.2-0.1-0.3-0.1c-0.1,0-0.1,0-0.2-0.1c-0.1,0-0.2-0.1-0.4-0.1c0,0-0.1,0-0.1,0c-0.1,0-0.2-0.1-0.4-0.1c0,0-0.1,0-0.1,0
			c-0.1,0-0.2-0.1-0.3-0.1c-0.1,0-0.1,0-0.2,0c-0.1,0-0.2,0-0.3,0c-0.1,0-0.2,0-0.3-0.1c-0.1,0-0.1,0-0.2,0c-0.1,0-0.3,0-0.4,0
			c0,0-0.1,0-0.1,0c-0.2,0-0.3,0-0.5,0c0,0,0,0,0,0c-0.2,0-0.4,0-0.5,0c0,0,0,0,0,0h0c0,0,0,0,0,0c-0.4,0-0.7,0-1.1,0.1c0,0,0,0,0,0
			c-0.2,0-0.3,0-0.5,0.1c0,0,0,0-0.1,0c-0.2,0-0.3,0.1-0.5,0.1c0,0-0.1,0-0.1,0c-0.1,0-0.3,0.1-0.4,0.1c-0.1,0-0.1,0-0.2,0
			c-0.1,0-0.2,0.1-0.3,0.1c-0.1,0-0.2,0-0.2,0.1c-0.1,0-0.2,0.1-0.2,0.1c-0.1,0-0.2,0.1-0.3,0.1c-0.1,0-0.1,0-0.2,0.1
			c-0.1,0-0.2,0.1-0.4,0.1c0,0-0.1,0-0.1,0.1c-0.1,0.1-0.3,0.1-0.4,0.2c0,0-0.1,0-0.1,0.1c-0.1,0.1-0.3,0.1-0.4,0.2c0,0,0,0-0.1,0
			l0,0c0,0,0,0,0,0c-0.1,0.1-0.2,0.1-0.4,0.2c0,0-0.1,0.1-0.1,0.1c-0.1,0.1-0.2,0.1-0.3,0.2c-0.1,0-0.1,0.1-0.2,0.1
			c-0.1,0-0.1,0.1-0.2,0.1c-0.1,0.1-0.2,0.1-0.3,0.2c0,0-0.1,0.1-0.1,0.1c-0.1,0.1-0.2,0.2-0.3,0.3c0,0,0,0,0,0
			c-0.5,0.5-1,1-1.4,1.5c0,0,0,0,0,0c-0.1,0.1-0.2,0.3-0.3,0.4c0,0.1-0.1,0.1-0.1,0.2c-0.1,0.1-0.1,0.2-0.2,0.2
			c-0.8,1.3-1.3,2.8-1.5,4.4c0,0,0,0.1,0,0.1c0,0.1,0,0.3,0,0.4c0,0.1,0,0.1,0,0.2c0,0.1,0,0.2,0,0.3c0,0.1,0,0.2,0,0.3
			c0,0,0,0.1,0,0.1v66.5c0,6.1,4.9,11,11,11h0c6.1,0,11-4.9,11-11V88l17.9,31c3,5.3,9.8,7.1,15,4l0,0C98.7,120,100.5,113.3,97.5,108
			z"/>
		<linearGradient id="SVGID_3_" gradientUnits="userSpaceOnUse" x1="76.9361" y1="47.6431" x2="98.9367" y2="47.6431">
			<stop  offset="0" style="stop-color:#ED1C24"/>
			<stop  offset="0.959" style="stop-color:#000000"/>
		</linearGradient>
		<path class="st3" d="M87.9,58.6L87.9,58.6c-6.1,0-11-4.9-11-11v0c0-6.1,4.9-11,11-11h0c6.1,0,11,4.9,11,11v0
			C98.9,53.7,94,58.6,87.9,58.6z"/>
		<path class="st2" d="M19,124.5L19,124.5c-6.1,0-11-4.9-11-11V47c0-6.1,4.9-11,11-11h0c6.1,0,11,4.9,11,11v66.5
			C30,119.6,25,124.5,19,124.5z"/>
		
			<linearGradient id="SVGID_4_" gradientUnits="userSpaceOnUse" x1="517.6797" y1="69.6428" x2="580.3047" y2="-2.3247" gradientTransform="matrix(-1 0 0 1 747.8882 0)">
			<stop  offset="4.098678e-02" style="stop-color:#000000"/>
			<stop  offset="1" style="stop-color:#ED1C24"/>
		</linearGradient>
		<path class="st4" d="M224.5,23C236.2,35.2,242,51,242,66.7c0,11.5-3.1,22.9-9.3,33c1.7-4,2.5-8.3,2.5-12.6
			c0-8.2-3.1-16.5-9.4-22.8c-1.3-1.3-2.6-2.4-4-3.4C226.6,48.9,227.5,35.6,224.5,23z M222.6,21.2c-12.2-11.7-28-17.6-43.7-17.6
			c-11.5,0-22.9,3.1-33,9.3c4-1.7,8.3-2.5,12.6-2.5c8.2,0,16.5,3.1,22.8,9.4c1.3,1.3,2.4,2.6,3.4,4C196.8,19,210.1,18.2,222.6,21.2z
			"/>
		<linearGradient id="SVGID_5_" gradientUnits="userSpaceOnUse" x1="118.1835" y1="48.0867" x2="225.8013" y2="141.3689">
			<stop  offset="0" style="stop-color:#000000"/>
			<stop  offset="1" style="stop-color:#ED1C24"/>
		</linearGradient>
		<path class="st5" d="M107.6,42v-5.7h6.4C111.4,37.6,109.2,39.6,107.6,42z M134.9,36.3H130c5.6,2.9,9.5,8.8,9.5,15.6v0
			c0,2.4-0.5,4.6-1.3,6.7c10.5,1.6,18.6,10.7,18.6,21.7c0,12.1-9.8,21.9-21.9,21.9h-5.3V67.7c-2.3,1.1-4.8,1.7-7.5,1.7h0
			c-6,0-11.3-3-14.5-7.6v62.4h27.3c24.2,0,43.9-19.7,43.9-43.9C178.8,56,159.1,36.3,134.9,36.3z M209.5,113.5V47c0-6.1-4.9-11-11-11
			h0c-6.1,0-11,4.9-11,11v66.5c0,6.1,4.9,11,11,11h0C204.6,124.5,209.5,119.6,209.5,113.5z"/>
	</g>
</g>
</svg>
