<svg xmlns="http://www.w3.org/2000/svg" version="1.1" xmlns:xlink="http://www.w3.org/1999/xlink" xmlns:svgjs="http://svgjs.com/svgjs" width="512" height="512" x="0" y="0" viewBox="0 0 512 512" style="enable-background:new 0 0 512 512" xml:space="preserve" class=""><g><g xmlns="http://www.w3.org/2000/svg"><path d="m163.811 186.868-24.782-6.196c-1.339-.335-2.602-.831-3.778-1.458l-31.366 34.716-31.366-34.716c-1.176.627-2.439 1.123-3.778 1.458l-24.783 6.196c-13.462 3.366-22.907 15.462-22.907 29.338v65.671c0 .597.484 1.081 1.081 1.081h164.586v-66.752c0-13.877-9.444-25.973-22.907-29.338z" fill="#01c0fa" data-original="#01c0fa" class=""></path><path d="m135.251 179.214c-5.305-2.828-8.775-8.395-8.775-14.62v-9.117c-6.441 4.42-38.741 4.42-45.182 0v9.117c0 6.225-3.471 11.791-8.775 14.62l31.366 34.716z" fill="#f6a96c" data-original="#f6a96c"></path><path d="m90.079 200.125h27.611v27.611h-27.611z" fill="#fd6930" data-original="#fd6930"></path><path d="m90.079 227.736h27.611v55.222h-27.611z" fill="#fd5426" data-original="#fd5426"></path><path d="m64.608 178.933 11.666 34.998 27.611-13.806-35.787-23.858c-1.84-1.226-4.189.569-3.49 2.666z" fill="#01d0fb" data-original="#01d0fb" class=""></path><path d="m143.162 178.933-11.666 34.998-27.611-13.806 35.787-23.858c1.839-1.226 4.189.569 3.49 2.666z" fill="#01d0fb" data-original="#01d0fb" class=""></path><path d="m145.041 105.087c.371-5.815.756-11.845 1.149-18.008 1.558-24.424-17.831-45.09-42.305-45.09-24.474 0-43.863 20.666-42.305 45.09.387 6.057.765 11.983 1.132 17.736z" fill="#017297" data-original="#017297" class=""></path><path d="m121.732 79.643h-37.085c-5.73 0-10.969 3.238-13.532 8.364l-8.404 16.808c.449 7.033.881 13.806 1.291 20.24 1.343 21.04 18.799 37.418 39.882 37.418 21.083 0 38.539-16.378 39.882-37.418.398-6.246.826-12.95 1.274-19.968l-10.169-17.814c-2.692-4.718-7.707-7.63-13.139-7.63z" fill="#fed2a4" data-original="#fed2a4"></path><path d="m121.732 79.643h-5.708c-.808 12.665-1.577 24.71-2.26 35.411-1.27 19.899-16.952 35.628-36.485 37.275 7.084 6.322 16.421 10.143 26.604 10.143 21.083 0 38.539-16.378 39.882-37.418.398-6.246.826-12.95 1.274-19.968l-10.169-17.814c-2.691-4.717-7.706-7.629-13.138-7.629z" fill="#ffbd86" data-original="#ffbd86" class=""></path><path d="m468.042 186.868-24.782-6.196c-1.339-.335-2.602-.831-3.778-1.458l-31.366 34.716-31.366-34.716c-1.176.627-2.439 1.123-3.778 1.458l-24.783 6.196c-13.462 3.366-22.907 15.462-22.907 29.338v65.672c0 .596.484 1.08 1.08 1.08h163.506c.597 0 1.081-.484 1.081-1.081v-65.671c0-13.877-9.444-25.973-22.907-29.338z" fill="#fd4755" data-original="#fd4755" class=""></path><path d="m439.482 179.214c-5.305-2.828-8.775-8.395-8.775-14.62v-9.117c-6.441 4.42-38.741 4.42-45.182 0v9.117c0 6.225-3.471 11.791-8.775 14.62l31.366 34.716z" fill="#d78878" data-original="#d78878" class=""></path><path d="m394.31 200.125h27.611v27.611h-27.611z" fill="#0681af" data-original="#0681af" class=""></path><path d="m394.31 227.736h27.611v55.222h-27.611z" fill="#017297" data-original="#017297" class=""></path><path d="m368.838 178.933 11.666 34.998 27.611-13.806-35.787-23.858c-1.839-1.226-4.189.569-3.49 2.666z" fill="#fe646f" data-original="#fe646f"></path><path d="m447.393 178.933-11.666 34.998-27.611-13.806 35.787-23.858c1.839-1.226 4.189.569 3.49 2.666z" fill="#fe646f" data-original="#fe646f"></path><path d="m449.603 99.898 1.933-30.289c.955-14.961-10.923-27.621-25.915-27.621h-35.01c-14.992 0-26.869 12.659-25.915 27.62l1.932 30.289h82.975z" fill="#017297" data-original="#017297" class=""></path><path d="m447.522 98.858c-7.166-3.583-13.707-8.298-19.372-13.963l-5.252-5.252h-29.565l-5.252 5.252c-5.665 5.665-12.206 10.38-19.372 13.963l-2.081 1.04 1.605 25.157c1.342 21.04 18.799 37.418 39.882 37.418 21.083 0 38.539-16.378 39.882-37.418l1.605-25.157z" fill="#f1b0a2" data-original="#f1b0a2"></path><path d="m447.522 98.858c-7.166-3.583-13.707-8.298-19.372-13.963l-5.252-5.252h-2.642c-.804 12.607-1.571 24.622-2.26 35.411-1.27 19.899-16.953 35.628-36.485 37.275 7.084 6.322 16.421 10.143 26.604 10.143 21.083 0 38.539-16.374 39.882-37.414.499-7.823 1.04-16.291 1.605-25.161z" fill="#eb9c8d" data-original="#eb9c8d"></path><path d="m336.04 210.2-33.1-8.275c-1.145-.286-2.251-.659-3.311-1.11-.364-.155-1.076-.493-1.076-.493h-85.106c-.353.173-.712.338-1.076.493-1.06.451-2.165.824-3.311 1.11l-33.1 8.275c-17.981 4.495-30.595 20.651-30.595 39.185v89.156h221.269v-89.156c.001-18.534-12.613-34.689-30.594-39.185z" fill="#0681af" data-original="#0681af" class=""></path><path d="m291.993 195.41c-3.646-3.979-5.819-9.264-5.819-14.958v-12.176h-60.346v12.176c0 5.695-2.173 10.98-5.819 14.958l35.992 23.593z" fill="#ffcebf" data-original="#ffcebf"></path><path d="m312.23 81.083c.252-3.956.522-8.178.811-12.714 2.106-33.027-24.238-60.869-57.055-60.869-33.009 0-59.16 27.873-57.059 60.815.229 3.593.509 7.976.814 12.766z" fill="#ffc344" data-original="#ffc344" class=""></path><path d="m277.055 53.163c-7.873 0-15.144 2.511-21.068 6.801-5.924-4.29-13.196-6.801-21.069-6.801-17.127 0-31.466 11.92-35.175 27.918.998 15.641 2.272 35.615 2.971 46.559 1.793 28.105 25.111 49.983 53.273 49.983s51.48-21.877 53.273-49.983c.698-10.943 1.972-30.916 2.97-46.556-3.711-16-18.059-27.921-35.175-27.921z" fill="#ffeee6" data-original="#ffeee6" class=""></path><path d="m277.055 53.163c-1.493 0-2.964.09-4.409.266-1.029 16.121-2.638 41.349-3.457 54.175-1.793 28.105-25.111 49.983-53.273 49.983-.548 0-1.093-.009-1.637-.026 9.81 12.264 24.895 20.061 41.707 20.061 28.162 0 51.48-21.877 53.273-49.983.698-10.943 1.972-30.916 2.97-46.556-3.71-15.999-18.058-27.92-35.174-27.92z" fill="#ffdfcf" data-original="#ffdfcf" class=""></path><path d="m269.83 241.742h-27.659l-13.829 96.806h55.317z" fill="#feb237" data-original="#feb237"></path><path d="m242.171 209.807h27.659v31.936h-27.659z" fill="#ffc344" data-original="#ffc344" class=""></path><path d="m219.646 191.629 36.354 18.177-18.392 27.587-27.236-36.315c-.201-.269-.175-.644.063-.882l8.443-8.443c.203-.201.512-.252.768-.124z" fill="#0681af" data-original="#0681af" class=""></path><path d="m292.355 191.629-36.354 18.177 18.392 27.587 27.236-36.315c.201-.269.175-.644-.063-.882l-8.443-8.443c-.203-.201-.512-.252-.768-.124z" fill="#0681af" data-original="#0681af" class=""></path><path d="m366.08 373.611-22.981-5.745c-.248-.062-.444-.249-.518-.493-1.705-5.578-3.934-10.927-6.629-15.989-.12-.226-.114-.496.018-.715l12.191-20.319c.173-.288.128-.657-.11-.895l-27.638-27.638c-.238-.238-.607-.283-.895-.11l-20.319 12.191c-.219.131-.49.138-.715.018-5.062-2.696-10.411-4.924-15.989-6.629-.244-.075-.432-.271-.493-.518l-5.745-22.981c-.082-.326-.375-.555-.711-.555h-39.087c-.336 0-.629.229-.711.555l-5.745 22.981c-.062.248-.249.444-.494.518-5.578 1.705-10.927 3.933-15.989 6.629-.225.12-.496.114-.715-.018l-20.319-12.191c-.288-.173-.657-.128-.895.11l-27.638 27.638c-.238.238-.283.607-.11.895l12.191 20.319c.131.219.138.49.018.715-2.696 5.063-4.924 10.411-6.629 15.989-.075.244-.27.432-.518.493l-22.981 5.745c-.326.082-.555.375-.555.711v39.086c0 .336.229.629.555.711l22.981 5.745c.248.062.443.249.518.493 1.705 5.578 3.933 10.927 6.629 15.989.12.226.114.496-.018.715l-12.191 20.319c-.173.288-.128.657.11.895l27.638 27.638c.238.238.607.283.895.11l20.319-12.191c.219-.131.49-.138.715-.018 5.063 2.696 10.411 4.924 15.989 6.629.244.075.431.27.493.518l5.745 22.981c.082.326.375.555.711.555h39.087c.336 0 .629-.229.711-.555l5.744-22.979c.062-.248.249-.444.493-.518 5.578-1.705 10.927-3.933 15.989-6.629.226-.12.496-.114.715.018l20.319 12.191c.288.173.657.128.895-.11l27.638-27.638c.238-.238.283-.607.11-.895l-12.191-20.319c-.131-.219-.138-.49-.018-.715 2.695-5.063 4.924-10.412 6.629-15.989.075-.244.27-.432.518-.493l22.981-5.745c.326-.082.555-.375.555-.711v-39.086c.002-.339-.226-.632-.553-.713z" fill="#b4d2e2" data-original="#b4d2e2" class=""></path><circle cx="256.001" cy="393.865" fill="#f2fbff" r="55.317" data-original="#f2fbff" class=""></circle><path d="m258.586 338.607c7.909 9.567 12.661 21.84 12.661 35.222 0 30.551-24.766 55.317-55.317 55.317-.867 0-1.729-.02-2.585-.059 10.146 12.274 25.488 20.095 42.656 20.095 30.551 0 55.317-24.766 55.317-55.317 0-29.684-23.381-53.907-52.732-55.258z" fill="#dff6fd" data-original="#dff6fd" class=""></path><path d="m100.119 132.51h1.014c7.729 0 14.017-6.288 14.017-14.017v-8.544c0-4.143-3.358-7.5-7.5-7.5s-7.5 3.357-7.5 7.5v7.561c-4.236 0-7.53 3.408-7.53 7.5-.001 4.142 3.357 7.5 7.499 7.5z" fill="#000000" data-original="#000000" class=""></path><path d="m469.862 179.592-15.147-3.787c-.53-2.106-1.753-4.029-3.562-5.41-3.276-2.503-7.761-2.688-11.228-.486-1.099-1.518-1.718-3.367-1.718-5.313v-5.424c9.839-8.088 16.409-20.062 17.276-33.638.714-11.187 2.837-44.463 3.538-55.445.586-9.19-2.691-18.313-8.992-25.03-6.301-6.716-15.197-10.568-24.407-10.568h-35.01c-9.209 0-18.105 3.852-24.407 10.568-6.301 6.716-9.579 15.839-8.993 25.03.702 11.006 2.826 44.284 3.538 55.445.866 13.577 7.436 25.55 17.276 33.638v5.424c0 1.946-.62 3.795-1.718 5.313-3.468-2.203-7.953-2.016-11.228.487-1.809 1.382-3.032 3.305-3.562 5.41l-15.147 3.787c-10.613 2.653-19.484 9.814-24.408 19.358l-14.745-3.686c-.273-.309 1.413 1.399-8.797-8.82-1.194-1.191-2.685-1.952-4.261-2.247-.321-1.213-.485-2.47-.485-3.746v-8.452c13.126-10.376 21.933-26.052 23.071-43.883.557-8.725 1.361-21.334 3.785-59.324 1.138-18.2-5.179-35.295-17.412-48.333-12.2-13.003-29.379-20.46-47.132-20.46-18.059 0-34.81 7.253-47.166 20.423s-18.527 30.348-17.377 48.368c.309 4.841.88 13.802 1.146 17.958.264 4.133 3.828 7.275 7.962 7.007 4.134-.264 7.271-3.828 7.007-7.962l-.257-4.029c3.364-12.478 14.575-21.103 27.616-21.103 6.049 0 11.813 1.858 16.67 5.376 2.624 1.9 6.172 1.899 8.797-.001 4.856-3.517 10.62-5.375 16.669-5.375 13.04 0 24.251 8.627 27.616 21.107l-2.896 45.392c-1.537 24.09-21.65 42.96-45.789 42.96s-44.252-18.87-45.789-42.96l-.335-5.253c-.265-4.134-3.836-7.272-7.963-7.006-4.134.264-7.271 3.829-7.007 7.963l.335 5.251c1.138 17.844 9.958 33.53 23.1 43.906v8.429c0 1.275-.164 2.532-.485 3.744-1.578.296-3.072 1.059-4.268 2.255l-8.443 8.443c-.12.12-.236.244-.347.37l-14.751 3.687c-4.934-9.535-13.844-16.719-24.404-19.359l-15.146-3.787c-.53-2.106-1.754-4.029-3.562-5.412-3.276-2.502-7.761-2.688-11.228-.486-1.099-1.518-1.718-3.367-1.718-5.313v-5.424c9.84-8.088 16.41-20.062 17.276-33.638.726-11.373 1.322-20.714 2.423-37.977.887-13.902-3.874-27.154-13.406-37.313s-22.454-15.754-36.384-15.754-26.851 5.596-36.383 15.756c-9.532 10.159-14.292 23.41-13.405 37.312.275 4.315 2.14 33.549 2.423 37.977.866 13.577 7.437 25.55 17.276 33.638v5.424c0 1.946-.62 3.795-1.718 5.313-3.468-2.203-7.953-2.016-11.228.487-1.809 1.382-3.033 3.305-3.562 5.41l-15.146 3.787c-16.832 4.208-28.588 19.264-28.588 36.614v65.622c0 4.759 3.872 8.63 8.63 8.63h115.685v46.865c0 4.808 3.911 8.719 8.719 8.719h17.926l3.165 5.275c-1.597 3.311-3.008 6.715-4.22 10.179l-19.363 4.841c-3.666.922-6.226 4.205-6.226 7.984v39.087c0 3.779 2.56 7.062 6.236 7.987l19.353 4.838c1.212 3.465 2.624 6.869 4.22 10.179l-10.267 17.111c-1.944 3.242-1.437 7.375 1.239 10.057l27.644 27.644c2.681 2.677 6.819 3.178 10.051 1.232l17.11-10.266c3.308 1.596 6.711 3.006 10.179 4.22l4.838 19.354c.918 3.672 4.202 6.236 7.986 6.236h39.087c3.785 0 7.069-2.564 7.987-6.236l4.838-19.353c3.466-1.213 6.87-2.624 10.18-4.221l17.094 10.256c3.244 1.956 7.384 1.455 10.073-1.228l27.644-27.645c2.667-2.673 3.176-6.802 1.233-10.052l-10.266-17.11c1.597-3.311 3.008-6.715 4.22-10.179l19.363-4.841c3.666-.922 6.226-4.205 6.226-7.984v-39.087c0-3.779-2.56-7.062-6.226-7.984l-.01-.003-19.353-4.838c-1.212-3.465-2.624-6.868-4.22-10.179l3.165-5.275h17.926c4.808 0 8.719-3.911 8.719-8.719v-46.865h115.683c4.759 0 8.63-3.871 8.63-8.63v-65.622c-.001-17.349-11.757-32.404-28.588-36.612zm-192.807-133.93c-7.468 0-14.659 1.862-21.068 5.424-6.41-3.562-13.602-5.424-21.069-5.424-10.493 0-20.209 3.667-27.799 9.927 1.692-9.252 6.005-17.83 12.641-24.903 9.49-10.116 22.356-15.686 36.227-15.686 13.826 0 26.68 5.584 36.193 15.723 6.631 7.067 10.948 15.627 12.654 24.852-7.588-6.252-17.296-9.913-27.779-9.913zm137.366 174.574h-12.611v-8.573l6.306-3.153 6.306 3.153v8.573zm-21.219-21.04c-.101.05-8.507 4.254-8.317 4.159l-4.159-12.477zm29.827 0 12.476-8.317-4.159 12.477c-.111-.056-8.825-4.414-8.317-4.16zm-45.886-143.877c3.528-3.76 8.312-5.831 13.468-5.831h35.01c5.157 0 9.94 2.071 13.468 5.832 3.528 3.76 5.29 8.665 4.961 13.812l-1.168 18.304c-3.369-2.315-6.523-4.937-9.429-7.845l-5.251-5.251c-1.407-1.406-3.314-2.196-5.303-2.196h-29.565c-1.989 0-3.896.79-5.303 2.196l-5.253 5.252c-2.906 2.907-6.06 5.528-9.428 7.843l-1.168-18.303c-.33-5.147 1.433-10.052 4.961-13.813zm-2.716 49.015c13.111-7.094 20.037-15.429 22.012-17.191h23.353l3.054 3.054c5.616 5.617 11.984 10.364 18.958 14.137l-1.292 20.243c-1.088 17.045-15.318 30.396-32.397 30.396s-31.31-13.352-32.397-30.396zm48.948 63.113c.464 3.917 1.876 7.607 4.061 10.784l-19.32 12.88-19.32-12.88c2.185-3.177 3.596-6.867 4.06-10.784 9.636 3.289 20.413 3.449 30.519 0zm-202.677 33.094 24.35 12.175-7.799 11.697-17.324-23.099zm41.632 32.28v1.422h-12.659v-1.421l6.33-9.494zm-13.654 16.421h14.649l3.784 26.488h-22.217zm26.077-24.829-7.799-11.697 24.35-12.175.773.773zm3.922-43.691c.027 2.97.493 5.888 1.376 8.675l-24.05 12.025-24.05-12.025c.881-2.783 1.348-5.697 1.376-8.663 14.377 5.797 30.686 5.909 45.348-.012zm-189.704 18.474c-.101.05-8.507 4.254-8.317 4.159l-4.158-12.476zm8.608 36.04h12.611v40.222h-12.611zm12.611-15h-12.611v-8.573l6.306-3.153 6.306 3.153v8.573zm8.608-21.04 12.476-8.317-4.159 12.477c-.175-.088-8.798-4.4-8.317-4.16zm-14.913-149.708c9.743 0 18.779 3.913 25.445 11.018 5.026 5.356 8.154 11.941 9.124 19.024-4.239-4.641-10.3-7.386-16.721-7.386h-37.085c-5.689 0-10.998 2.084-15.061 5.716 1.206-6.446 4.225-12.421 8.853-17.354 6.666-7.105 15.702-11.018 25.445-11.018zm-33.56 56.869 7.498-14.996c1.301-2.602 3.916-4.218 6.825-4.218h37.084c2.733 0 5.271 1.474 6.626 3.847l9.054 15.862-1.131 17.725c-1.087 17.045-15.318 30.396-32.397 30.396s-31.309-13.352-32.397-30.396zm48.819 61.09c.464 3.917 1.876 7.607 4.061 10.784l-19.32 12.88-19.32-12.88c2.185-3.177 3.596-6.867 4.06-10.784 9.636 3.289 20.413 3.449 30.519 0zm-90.593 48.759c0-10.454 7.083-19.526 17.226-22.062l14.765-3.691 8.617 25.85c.688 2.062 2.236 3.725 4.245 4.557 1.964.815 4.24.773 6.224-.221l2.951-1.476v56.295h-26.417v-30.73c0-4.143-3.358-7.5-7.5-7.5s-7.5 3.357-7.5 7.5v30.73h-12.611zm96.639 59.252v-56.295l2.952 1.476c1.912.957 4.186 1.066 6.224.221 2.009-.832 3.558-2.494 4.245-4.557l8.617-25.85 14.765 3.691c5.18 1.295 9.701 4.404 12.807 8.615l-.658.165c-21.358 5.341-36.275 24.447-36.275 46.462v26.072zm27.676-26.072c0-15.12 10.245-28.241 24.914-31.909l29.908-7.477 23.921 31.894c.71.946 1.62 1.696 2.648 2.209l-5.17 36.188c-.261.526-.47 1.086-.617 1.675l-4.839 19.354c-3.465 1.212-6.868 2.623-10.179 4.221l-17.114-10.269c-2.957-1.772-6.648-1.505-9.3.573-1.271-.99-2.869-1.58-4.605-1.58-4.142 0-7.5 3.357-7.5 7.5v6.099l-16.292 16.292c-1.854 1.857-2.665 4.415-2.34 6.887h-3.437v-81.657zm206.269 130.219v28.519l-17.842 4.461c-2.789.691-5.043 2.829-5.885 5.581-1.544 5.051-3.588 9.982-6.077 14.655-1.35 2.536-1.271 5.641.207 8.1l9.473 15.788-20.167 20.166-15.781-9.469c-2.463-1.481-5.569-1.561-8.105-.21-4.673 2.487-9.604 4.532-14.646 6.073-2.747.835-4.888 3.083-5.588 5.874l-4.464 17.857h-28.519l-4.466-17.863c-.699-2.784-2.839-5.032-5.575-5.864-5.054-1.544-9.985-3.589-14.657-6.076-2.54-1.352-5.647-1.271-8.099.206l-15.789 9.473-20.166-20.166 9.472-15.786c1.478-2.461 1.558-5.565.208-8.101-2.488-4.674-4.533-9.605-6.077-14.659-.841-2.748-3.094-4.885-5.871-5.575l-17.855-4.464v-28.519l17.846-4.462c2.787-.692 5.04-2.829 5.881-5.58 1.544-5.051 3.588-9.982 6.077-14.655 1.347-2.53 1.27-5.63-.207-8.1l-7.224-12.04c-.031-.052-.062-.104-.094-.156l-2.155-3.592 20.166-20.166 15.797 9.479c2.462 1.473 5.564 1.549 8.09.201 4.672-2.488 9.603-4.532 14.667-6.08 2.739-.842 4.872-3.091 5.566-5.868l4.464-17.855h28.519l4.464 17.855c.694 2.775 2.825 5.024 5.578 5.872 5.054 1.544 9.984 3.588 14.656 6.076 2.528 1.347 5.625 1.27 8.099-.206l15.788-9.474 20.166 20.166c-2.225 3.709-2.179 3.63-2.241 3.734l-7.238 12.063c-1.47 2.46-1.547 5.56-.2 8.089 2.488 4.674 4.533 9.605 6.077 14.659.841 2.749 3.096 4.887 5.872 5.575zm0-48.563h-3.438c.325-2.474-.487-5.032-2.344-6.893l-16.287-16.286v-6.099c0-4.143-3.358-7.5-7.5-7.5-1.736 0-3.334.59-4.605 1.58-2.657-2.082-6.348-2.344-9.304-.572l-17.109 10.267c-3.312-1.598-6.717-3.01-10.18-4.221l-4.838-19.354c-.147-.59-.356-1.151-.618-1.678l-5.169-36.185c1.028-.513 1.939-1.264 2.649-2.21l23.921-31.891c4.947 1.237 15.113 3.778 29.909 7.477 14.669 3.667 24.914 16.788 24.914 31.909v81.656zm-21.276-128.118-.666-.167c3.098-4.21 7.608-7.312 12.815-8.613l14.765-3.691 8.616 25.85c1.449 4.346 6.414 6.366 10.469 4.336l2.952-1.476v56.295h-12.674v-26.072c-.001-22.017-14.918-41.122-36.277-46.462zm145.59 72.534h-12.611v-30.73c0-4.143-3.358-7.5-7.5-7.5s-7.5 3.357-7.5 7.5v30.73h-26.417v-2.906c0-4.143-3.358-7.5-7.5-7.5s-7.5 3.357-7.5 7.5v2.906h-12.611v-40.222h12.611v2.315c0 4.143 3.358 7.5 7.5 7.5s7.5-3.357 7.5-7.5v-18.389l2.952 1.476c1.9.951 4.175 1.071 6.224.221 2.009-.832 3.558-2.494 4.245-4.557l8.616-25.85 14.765 3.691c10.142 2.535 17.226 11.607 17.226 22.062z" fill="#000000" data-original="#000000" class=""></path><path d="m404.35 132.51h1.014c7.729 0 14.017-6.288 14.017-14.017v-8.544c0-4.143-3.358-7.5-7.5-7.5s-7.5 3.357-7.5 7.5v7.561c-4.236 0-7.53 3.408-7.53 7.5-.001 4.142 3.357 7.5 7.499 7.5z" fill="#000000" data-original="#000000" class=""></path><path d="m252.528 135.087c8.653 0 15.692-7.04 15.692-15.692v-10.741c0-4.143-3.358-7.5-7.5-7.5s-7.5 3.357-7.5 7.5v10.741c0 .382-.311.692-.692.692h-1.275c-4.142 0-7.5 3.357-7.5 7.5s3.358 7.5 7.5 7.5z" fill="#000000" data-original="#000000" class=""></path><path d="m256.001 331.048c-34.638 0-62.817 28.18-62.817 62.817 0 15.877 5.938 31.033 16.722 42.677 2.813 3.037 7.559 3.22 10.599.406 3.039-2.815 3.221-7.561.406-10.6-8.207-8.861-12.727-20.397-12.727-32.483 0-26.366 21.451-47.817 47.817-47.817s47.817 21.451 47.817 47.817-21.451 47.817-47.817 47.817c-3.333 0-6.662-.345-9.893-1.023-4.052-.849-8.03 1.744-8.882 5.798s1.744 8.03 5.797 8.882c4.244.892 8.61 1.344 12.978 1.344 34.638 0 62.817-28.18 62.817-62.817s-28.18-62.818-62.817-62.818z" fill="#000000" data-original="#000000" class=""></path><path d="m251.111 416.033c1.989 0 3.897-.79 5.303-2.196l29.336-29.337c2.929-2.93 2.929-7.678 0-10.607-2.929-2.928-7.678-2.928-10.606 0l-24.033 24.034-14.254-14.255c-2.929-2.928-7.678-2.928-10.606 0-2.929 2.93-2.929 7.678 0 10.607l19.558 19.558c1.405 1.406 3.313 2.196 5.302 2.196z" fill="#000000" data-original="#000000" class=""></path></g></g></svg>